<svg xmlns="http://www.w3.org/2000/svg" xmlns:xlink="http://www.w3.org/1999/xlink" width="60.796" height="60.796" viewBox="0 0 60.796 60.796">
  <defs>
    <clipPath id="clip-path">
      <rect id="Rectangle_2429" data-name="Rectangle 2429" width="56.923" height="56.923" fill="none"/>
    </clipPath>
    <clipPath id="clip-path-2">
      <rect id="Rectangle_2430" data-name="Rectangle 2430" width="41.626" height="41.626" fill="none"/>
    </clipPath>
    <clipPath id="clip-path-3">
      <rect id="Rectangle_2431" data-name="Rectangle 2431" width="23.258" height="24.568" fill="none"/>
    </clipPath>
    <clipPath id="clip-path-4">
      <rect id="Rectangle_2432" data-name="Rectangle 2432" width="32.124" height="32.124" fill="none"/>
    </clipPath>
    <clipPath id="clip-path-5">
      <rect id="Rectangle_2433" data-name="Rectangle 2433" width="4.914" height="5.789" fill="none"/>
    </clipPath>
    <clipPath id="clip-path-6">
      <rect id="Rectangle_2434" data-name="Rectangle 2434" width="4.529" height="4.275" fill="none"/>
    </clipPath>
    <clipPath id="clip-path-7">
      <rect id="Rectangle_2435" data-name="Rectangle 2435" width="3.86" height="3.861" fill="none"/>
    </clipPath>
    <clipPath id="clip-path-8">
      <rect id="Rectangle_2436" data-name="Rectangle 2436" width="2.439" height="2.439" fill="none"/>
    </clipPath>
    <clipPath id="clip-path-9">
      <rect id="Rectangle_2437" data-name="Rectangle 2437" width="47.22" height="40.131" fill="none"/>
    </clipPath>
  </defs>
  <g id="Group_8451" data-name="Group 8451" transform="translate(1.5 1.5)">
    <path id="Path_7446" data-name="Path 7446" d="M1127.609,30.4A28.875,28.875,0,1,1,1110.269,3.9c1.371.6,4.166,1.578,5.04,2.847.484.7.5,2.115.707,2.952q.413,1.677.929,3.326a6.619,6.619,0,0,1,.472,3.4q.655-2.791,1.144-5.617a3.324,3.324,0,0,1,1.906,1.106c4.916,4.611,7.141,11.833,7.141,18.477" transform="translate(-1069.813 -1.501)"/>
    <path id="Path_7447" data-name="Path 7447" d="M1127.609,30.4A28.875,28.875,0,1,1,1110.269,3.9c1.371.6,4.166,1.578,5.04,2.847.484.7.5,2.115.707,2.952q.413,1.677.929,3.326a6.619,6.619,0,0,1,.472,3.4q.655-2.791,1.144-5.617a3.324,3.324,0,0,1,1.906,1.106C1125.384,16.533,1127.609,23.755,1127.609,30.4Z" transform="translate(-1069.813 -1.501)" fill="none" stroke="#000" stroke-linecap="round" stroke-linejoin="round" stroke-width="3"/>
    <g id="Group_6249" data-name="Group 6249" transform="translate(0.287 0.286)" style="mix-blend-mode: normal;isolation: isolate">
      <g id="Group_6248" data-name="Group 6248">
        <g id="Group_6247" data-name="Group 6247" clip-path="url(#clip-path)">
          <path id="Path_7448" data-name="Path 7448" d="M1121.18,13.241a1.886,1.886,0,0,0-1.485-.683c-.321,1.855-.569,3.918-1,5.75.256-1.113-.42-3.653-.761-4.743s-.521-1.874-.792-2.975a7.784,7.784,0,0,0-1.045-2.44c-.861-1.249-3.614-2.214-4.964-2.8a28.5,28.5,0,0,0-28.159,3.1l.633-.448,2.272,2.88,6.257.427-3.442.326a2.553,2.553,0,0,0-.908.262l-.6.3a1.611,1.611,0,0,0-.667.627l-.051.087a1.676,1.676,0,0,0-.229.87l.014.96-.73.614V11.328l-2.545-2.882a28.468,28.468,0,0,0,4.2,48.533l.91-.936.511-2.279,1.08-1.395-.186-1.387,2.229.366-.251.755-.81.031-1.611,1.375-.531,1.562.409,2.7a28.474,28.474,0,0,0,39.283-26.33c0-6.544-2.192-13.656-7.033-18.2" transform="translate(-1071.291 -2.978)" fill="#2671c5"/>
        </g>
      </g>
    </g>
    <path id="Path_7449" data-name="Path 7449" d="M1097.69,206.706c.689,2.376,3.512,5.3,3.512,5.3a6.044,6.044,0,0,1-3.512-5.3" transform="translate(-1092.279 -166.884)"/>
    <path id="Path_7450" data-name="Path 7450" d="M1342.505,116.168c-.069-5.3-1.377-7.4-1.377-7.4l.632.871a5.4,5.4,0,0,1,1.007,3.664Z" transform="translate(-1288.477 -87.95)"/>
    <path id="Path_7451" data-name="Path 7451" d="M1151.372,61.549A22.453,22.453,0,1,1,1128.919,39.1a22.453,22.453,0,0,1,22.453,22.453" transform="translate(-1099.353 -31.8)"/>
    <g id="Group_6252" data-name="Group 6252" transform="translate(8.101 8.283)" style="mix-blend-mode: normal;isolation: isolate">
      <g id="Group_6251" data-name="Group 6251">
        <g id="Group_6250" data-name="Group 6250" clip-path="url(#clip-path-2)">
          <path id="Path_7452" data-name="Path 7452" d="M1153.182,65a20.813,20.813,0,1,1-20.813-20.813A20.813,20.813,0,0,1,1153.182,65" transform="translate(-1111.557 -44.187)" fill="#6eb0ff"/>
        </g>
      </g>
    </g>
    <path id="Path_7453" data-name="Path 7453" d="M1162.805,5.656c-.273-.113-.525-.217-.74-.311a28.5,28.5,0,0,0-27.581,2.69h0l.054-.038,1.375,1.743h0l.9,1.137,5.286.361-3.8-.836-.219-1.628s7.417-6.65,24.725-3.119" transform="translate(-1121.934 -2.691)" fill="#6ba9de"/>
    <path id="Path_7454" data-name="Path 7454" d="M1149.86,46.473l-.6.3a1.61,1.61,0,0,0-.666.626l-.051.087a1.677,1.677,0,0,0-.229.87l.013.941a29.684,29.684,0,0,1,5.887-3.417l-3.442.326a2.55,2.55,0,0,0-.908.262" transform="translate(-1133.077 -37.272)" fill="#6ba9de"/>
    <path id="Path_7455" data-name="Path 7455" d="M1316.576,52.239l-1,5.75,1.375-3.978A9.482,9.482,0,0,1,1320.535,59l-1.864-5.473s-.965-1.523-2.1-1.285" transform="translate(-1267.884 -42.372)" fill="#6ba9de"/>
    <path id="Path_7456" data-name="Path 7456" d="M1145.091,61.253l-.007,1.164-.777.206.156-.788Z" transform="translate(-1129.85 -49.658)"/>
    <path id="Path_7457" data-name="Path 7457" d="M1084.778,38.743c.221-.236.473-.5.728-.745l-.84-3.427-1.69-3.418a28.483,28.483,0,0,0-10.867,29.778,79.946,79.946,0,0,1,2.622-16.2,2.976,2.976,0,0,0,3.44-2.046,12.318,12.318,0,0,1,2.185-4.237l2.621-3.215,1.4.731Z" transform="translate(-1071.004 -25.398)" fill="#6ba9de"/>
    <g id="Group_6255" data-name="Group 6255" transform="translate(11.897 11.042)" style="mix-blend-mode: normal;isolation: isolate">
      <g id="Group_6254" data-name="Group 6254">
        <g id="Group_6253" data-name="Group 6253" clip-path="url(#clip-path-3)">
          <path id="Path_7458" data-name="Path 7458" d="M1150.036,60.11c5.006,3.447,5.8,10.978,1.78,16.819s-11.342,7.783-16.348,4.335-5.8-10.978-1.78-16.819,11.342-7.783,16.348-4.336" transform="translate(-1131.123 -58.404)" fill="#9bcfff"/>
        </g>
      </g>
    </g>
    <g id="Group_6258" data-name="Group 6258" transform="translate(14.905 15.088)" opacity="0.15">
      <g id="Group_6257" data-name="Group 6257">
        <g id="Group_6256" data-name="Group 6256" clip-path="url(#clip-path-4)">
          <path id="Path_7459" data-name="Path 7459" d="M1172.118,79.253a18.116,18.116,0,0,1-25.5,25.5,18.116,18.116,0,1,0,25.5-25.5" transform="translate(-1146.622 -79.253)"/>
        </g>
      </g>
    </g>
    <g id="Group_6261" data-name="Group 6261" transform="translate(37.513 19.345)" style="mix-blend-mode: normal;isolation: isolate">
      <g id="Group_6260" data-name="Group 6260">
        <g id="Group_6259" data-name="Group 6259" clip-path="url(#clip-path-5)">
          <path id="Path_7460" data-name="Path 7460" d="M1265.576,101.191a2.933,2.933,0,1,1-2.457,2.895,2.7,2.7,0,0,1,2.457-2.895" transform="translate(-1263.119 -101.191)" fill="#9bcfff"/>
        </g>
      </g>
    </g>
    <g id="Group_6264" data-name="Group 6264" transform="translate(11.385 34.533)" style="mix-blend-mode: normal;isolation: isolate">
      <g id="Group_6263" data-name="Group 6263">
        <g id="Group_6262" data-name="Group 6262" clip-path="url(#clip-path-6)">
          <path id="Path_7461" data-name="Path 7461" d="M1132.7,182.937a2.406,2.406,0,1,1-.812-3.006,2.217,2.217,0,0,1,.813,3.006" transform="translate(-1128.477 -179.453)" fill="#9bcfff"/>
        </g>
      </g>
    </g>
    <g id="Group_6267" data-name="Group 6267" transform="translate(14.575 19.368)" opacity="0.4" style="mix-blend-mode: normal;isolation: isolate">
      <g id="Group_6266" data-name="Group 6266">
        <g id="Group_6265" data-name="Group 6265" clip-path="url(#clip-path-7)">
          <path id="Path_7462" data-name="Path 7462" d="M1148.313,101.773a2.1,2.1,0,1,1-2.722.21,1.942,1.942,0,0,1,2.722-.21" transform="translate(-1144.917 -101.309)" fill="#fff"/>
        </g>
      </g>
    </g>
    <g id="Group_6270" data-name="Group 6270" transform="translate(14.181 24.199)" opacity="0.4" style="mix-blend-mode: normal;isolation: isolate">
      <g id="Group_6269" data-name="Group 6269">
        <g id="Group_6268" data-name="Group 6268" clip-path="url(#clip-path-8)">
          <path id="Path_7463" data-name="Path 7463" d="M1145.036,126.494a1.325,1.325,0,1,1-1.719.133,1.226,1.226,0,0,1,1.719-.133" transform="translate(-1142.891 -126.201)" fill="#fff"/>
        </g>
      </g>
    </g>
    <path id="Path_7464" data-name="Path 7464" d="M1178.218,111.923h0a9.731,9.731,0,0,1-7.991-4.1,9.853,9.853,0,0,1-.078-11.365l6.13-8.79a2.365,2.365,0,0,1,3.879,0l6.13,8.79a9.854,9.854,0,0,1-.078,11.365,9.732,9.732,0,0,1-7.992,4.1m-6.085-5.469a7.491,7.491,0,0,0,12.171,0,7.5,7.5,0,0,0,.059-8.655l-6.13-8.789-.025-.006-6.135,8.8a7.5,7.5,0,0,0,.059,8.655" transform="translate(-1149.255 -70.131)" fill="#fff"/>
    <path id="Path_7465" data-name="Path 7465" d="M1178.218,111.923h0a9.731,9.731,0,0,1-7.991-4.1,9.853,9.853,0,0,1-.078-11.365l6.13-8.79a2.365,2.365,0,0,1,3.879,0l6.13,8.79a9.854,9.854,0,0,1-.078,11.365A9.732,9.732,0,0,1,1178.218,111.923Zm-6.085-5.469a7.491,7.491,0,0,0,12.171,0,7.5,7.5,0,0,0,.059-8.655l-6.13-8.789-.025-.006-6.135,8.8a7.5,7.5,0,0,0,.059,8.655" transform="translate(-1149.255 -70.131)" fill="none" stroke="#fff" stroke-width="1"/>
    <path id="Path_7466" data-name="Path 7466" d="M1183.8,87.488a1.472,1.472,0,1,1-1.473-1.473,1.472,1.472,0,0,1,1.473,1.473" transform="translate(-1159.304 -69.614)" fill="#fff"/>
    <path id="Path_7467" data-name="Path 7467" d="M1183.8,87.488a1.472,1.472,0,1,1-1.473-1.473A1.472,1.472,0,0,1,1183.8,87.488Z" transform="translate(-1159.304 -69.614)" fill="none" stroke="#fff" stroke-width="1"/>
    <g id="Group_6273" data-name="Group 6273" transform="translate(9.99 17.078)" opacity="0.15">
      <g id="Group_6272" data-name="Group 6272">
        <g id="Group_6271" data-name="Group 6271" clip-path="url(#clip-path-9)">
          <path id="Path_7468" data-name="Path 7468" d="M1131.974,267.808l.7-.724a20.286,20.286,0,0,1-5.807-2.512,28.467,28.467,0,0,0,5.1,3.236" transform="translate(-1125.787 -230.599)"/>
          <path id="Path_7469" data-name="Path 7469" d="M1121.317,259.931l-.027-.023.027.023" transform="translate(-1121.29 -226.839)"/>
          <path id="Path_7470" data-name="Path 7470" d="M1196.88,102.176c-2.484,2.932-2.741,4.477-2.741,4.477l-4.016,7.328-6.027,6.241-6.8,3.81s-.915,2.661-5.713,3.209a46.489,46.489,0,0,1-11.385-2.758l-.11.323.124.819a17.783,17.783,0,0,0,2.188,1.069s-.862-.153-2.1-.471l.194,1.283a28.539,28.539,0,0,0,36.837-38c.007.033,2.03,9.744-.45,12.671" transform="translate(-1152.557 -89.505)"/>
          <path id="Path_7471" data-name="Path 7471" d="M1139.314,257.951l.216-.965a15.982,15.982,0,0,1-4.8-2.954,18.478,18.478,0,0,0,4.584,3.918" transform="translate(-1132.122 -222.105)"/>
        </g>
      </g>
    </g>
  </g>
</svg>
