<svg xmlns="http://www.w3.org/2000/svg" xmlns:xlink="http://www.w3.org/1999/xlink" width="161.079" height="199.322" viewBox="0 0 161.079 199.322">
  <defs>
    <clipPath id="clip-path">
      <rect id="Rectangle_939" data-name="Rectangle 939" width="151.428" height="134.296" fill="#353557"/>
    </clipPath>
    <clipPath id="clip-path-2">
      <rect id="Rectangle_3075" data-name="Rectangle 3075" width="161.079" height="199.322" fill="none"/>
    </clipPath>
    <clipPath id="clip-path-3">
      <rect id="Rectangle_3050" data-name="Rectangle 3050" width="161.079" height="199.322" fill="#61619b"/>
    </clipPath>
    <clipPath id="clip-path-4">
      <path id="Path_9415" data-name="Path 9415" d="M85.11,2.7c-15.128-.053-39.362,8.749-65.477,53.468,0,0-37.019,73.993,23.711,122.085,0,0,12.479,10.78,38.663,12.876a30.721,30.721,0,0,0,3.559.1c1.206.006,1.616-.052,2.647-.1,26.182-2.1,38.662-12.876,38.662-12.876,60.468-48.618,23.712-122.085,23.712-122.085C124.552,11.591,100.383,2.706,85.247,2.7H85.11" transform="translate(-8.461 -2.705)" fill="#a3a3f3"/>
    </clipPath>
    <clipPath id="clip-path-6">
      <rect id="Rectangle_3064" data-name="Rectangle 3064" width="153.186" height="135.075" fill="#61619b"/>
    </clipPath>
    <clipPath id="clip-path-7">
      <rect id="Rectangle_3052" data-name="Rectangle 3052" width="0.101" height="0.217" fill="#61619b"/>
    </clipPath>
    <clipPath id="clip-path-8">
      <rect id="Rectangle_3053" data-name="Rectangle 3053" width="0.069" height="0.146" fill="#61619b"/>
    </clipPath>
    <clipPath id="clip-path-9">
      <rect id="Rectangle_3054" data-name="Rectangle 3054" width="0.043" height="0.089" fill="#61619b"/>
    </clipPath>
    <clipPath id="clip-path-10">
      <rect id="Rectangle_3055" data-name="Rectangle 3055" width="0.583" height="1.308" fill="#61619b"/>
    </clipPath>
    <clipPath id="clip-path-11">
      <rect id="Rectangle_3056" data-name="Rectangle 3056" width="0.027" height="0.055" fill="#61619b"/>
    </clipPath>
    <clipPath id="clip-path-12">
      <rect id="Rectangle_3057" data-name="Rectangle 3057" width="12.267" height="92.223" fill="#61619b"/>
    </clipPath>
    <clipPath id="clip-path-13">
      <rect id="Rectangle_3058" data-name="Rectangle 3058" width="0.091" height="0.188" fill="#61619b"/>
    </clipPath>
    <clipPath id="clip-path-14">
      <rect id="Rectangle_3059" data-name="Rectangle 3059" width="0.224" height="0.521" fill="#61619b"/>
    </clipPath>
    <clipPath id="clip-path-15">
      <rect id="Rectangle_3060" data-name="Rectangle 3060" width="1.294" height="2.091" fill="#61619b"/>
    </clipPath>
    <clipPath id="clip-path-16">
      <rect id="Rectangle_3061" data-name="Rectangle 3061" width="0.269" height="0.569" fill="#61619b"/>
    </clipPath>
    <clipPath id="clip-path-17">
      <rect id="Rectangle_3062" data-name="Rectangle 3062" width="0.263" height="0.638" fill="#61619b"/>
    </clipPath>
    <clipPath id="clip-path-18">
      <rect id="Rectangle_3063" data-name="Rectangle 3063" width="0.238" height="0.566" fill="#61619b"/>
    </clipPath>
    <clipPath id="clip-path-19">
      <rect id="Rectangle_3065" data-name="Rectangle 3065" width="124.532" height="132.606" fill="#61619b"/>
    </clipPath>
    <clipPath id="clip-path-20">
      <rect id="Rectangle_3066" data-name="Rectangle 3066" width="70.67" height="136.082" fill="none"/>
    </clipPath>
    <clipPath id="clip-path-21">
      <rect id="Rectangle_3067" data-name="Rectangle 3067" width="14.347" height="22.027" fill="none"/>
    </clipPath>
    <clipPath id="clip-path-22">
      <rect id="Rectangle_3068" data-name="Rectangle 3068" width="19.163" height="13.593" fill="none"/>
    </clipPath>
    <clipPath id="clip-path-23">
      <rect id="Rectangle_3069" data-name="Rectangle 3069" width="10.272" height="16.221" fill="none"/>
    </clipPath>
    <clipPath id="clip-path-24">
      <rect id="Rectangle_3070" data-name="Rectangle 3070" width="8.238" height="11.95" fill="none"/>
    </clipPath>
    <clipPath id="clip-path-25">
      <rect id="Rectangle_3071" data-name="Rectangle 3071" width="13.081" height="7.354" fill="none"/>
    </clipPath>
    <clipPath id="clip-path-26">
      <rect id="Rectangle_3072" data-name="Rectangle 3072" width="10.254" height="8.438" fill="none"/>
    </clipPath>
    <clipPath id="clip-path-27">
      <rect id="Rectangle_3074" data-name="Rectangle 3074" width="13.963" height="17.032" fill="none"/>
    </clipPath>
  </defs>
  <g id="Group_8454" data-name="Group 8454" transform="translate(-128.535 -333.339)">
    <g id="Group_8362" data-name="Group 8362" transform="translate(141.963 508.397) rotate(-90)" opacity="0.151">
      <g id="Group_2454" data-name="Group 2454" clip-path="url(#clip-path)">
        <path id="Path_4373" data-name="Path 4373" d="M107.682,0H43.746a11.778,11.778,0,0,0-10.2,5.889L1.578,61.259a11.778,11.778,0,0,0,0,11.778l31.968,55.37a11.778,11.778,0,0,0,10.2,5.889h63.936a11.778,11.778,0,0,0,10.2-5.889l31.968-55.37a11.777,11.777,0,0,0,0-11.778L117.882,5.889A11.778,11.778,0,0,0,107.682,0" transform="translate(0)" fill="#353557"/>
      </g>
    </g>
    <g id="Group_8435" data-name="Group 8435" transform="translate(128.535 333.339)" clip-path="url(#clip-path-2)">
      <g id="Group_8364" data-name="Group 8364">
        <g id="Group_8363" data-name="Group 8363" clip-path="url(#clip-path-3)">
          <path id="Path_9409" data-name="Path 9409" d="M57.879,196.147,63.326,209.4a5.258,5.258,0,0,0,7.794,2.367l13.863-9.306Z" transform="translate(-3.937 -13.341)" fill="#61619b"/>
          <path id="Path_9410" data-name="Path 9410" d="M162.259,145.79l4.973,19.342a6.223,6.223,0,0,1-6.41,7.762l-12.773-.788Z" transform="translate(-10.069 -9.916)" fill="#61619b"/>
          <path id="Path_9411" data-name="Path 9411" d="M143.269,39.091l12.877,3.219a10.265,10.265,0,0,1,7.763,10.46L163,71.2Z" transform="translate(-9.744 -2.659)" fill="#61619b"/>
          <path id="Path_9412" data-name="Path 9412" d="M106.516,5.747l9.142-2.54A4.744,4.744,0,0,1,121.6,6.986l1.753,10.34Z" transform="translate(-7.245 -0.206)" fill="#61619b"/>
          <path id="Path_9413" data-name="Path 9413" d="M27.221,47.832H22.089a5.667,5.667,0,0,0-5.412,7.345l2.651,8.551Z" transform="translate(-1.117 -3.253)" fill="#61619b"/>
          <path id="Path_9414" data-name="Path 9414" d="M8.557,101.247.93,109.242a3.359,3.359,0,0,0,.254,4.88l8.991,7.653Z" transform="translate(0 -6.886)" fill="#61619b"/>
        </g>
      </g>
      <g id="Group_8366" data-name="Group 8366" transform="translate(7.885 2.521)">
        <g id="Group_8365" data-name="Group 8365" clip-path="url(#clip-path-4)">
          <rect id="Rectangle_3051" data-name="Rectangle 3051" width="204.729" height="188.616" transform="translate(-25.846 -0.053)" fill="#a3a3f3"/>
        </g>
      </g>
      <g id="Group_8431" data-name="Group 8431">
        <g id="Group_8430" data-name="Group 8430" clip-path="url(#clip-path-2)">
          <g id="Group_8405" data-name="Group 8405" transform="translate(7.893 55.989)" opacity="0.104">
            <g id="Group_8404" data-name="Group 8404">
              <g id="Group_8403" data-name="Group 8403" clip-path="url(#clip-path-6)">
                <g id="Group_8369" data-name="Group 8369" transform="translate(10.73 0.701)" opacity="0.19">
                  <g id="Group_8368" data-name="Group 8368">
                    <g id="Group_8367" data-name="Group 8367" clip-path="url(#clip-path-7)">
                      <path id="Path_9416" data-name="Path 9416" d="M19.982,61.044c.036-.078.068-.148.1-.216-.033.068-.064.137-.1.216" transform="translate(-19.982 -60.827)" fill="#61619b"/>
                    </g>
                  </g>
                </g>
                <g id="Group_8372" data-name="Group 8372" transform="translate(10.902 0.403)" opacity="0.19">
                  <g id="Group_8371" data-name="Group 8371">
                    <g id="Group_8370" data-name="Group 8370" clip-path="url(#clip-path-8)">
                      <path id="Path_9417" data-name="Path 9417" d="M20.166,60.653c.024-.052.048-.1.069-.145l-.069.145" transform="translate(-20.166 -60.507)" fill="#61619b"/>
                    </g>
                  </g>
                </g>
                <g id="Group_8375" data-name="Group 8375" transform="translate(11.035 0.179)" opacity="0.19">
                  <g id="Group_8374" data-name="Group 8374" transform="translate(0)">
                    <g id="Group_8373" data-name="Group 8373" clip-path="url(#clip-path-9)">
                      <path id="Path_9418" data-name="Path 9418" d="M20.309,60.356l.042-.089-.042.089" transform="translate(-20.309 -60.267)" fill="#61619b"/>
                    </g>
                  </g>
                </g>
                <g id="Group_8378" data-name="Group 8378" transform="translate(10.081 1.061)" opacity="0.19">
                  <g id="Group_8377" data-name="Group 8377">
                    <g id="Group_8376" data-name="Group 8376" clip-path="url(#clip-path-10)">
                      <path id="Path_9419" data-name="Path 9419" d="M19.286,62.521c.226-.521.421-.954.583-1.308-.162.353-.357.788-.583,1.308" transform="translate(-19.286 -61.213)" fill="#61619b"/>
                    </g>
                  </g>
                </g>
                <g id="Group_8381" data-name="Group 8381" transform="translate(11.119 0.04)" opacity="0.19">
                  <g id="Group_8380" data-name="Group 8380" transform="translate(0)">
                    <g id="Group_8379" data-name="Group 8379" clip-path="url(#clip-path-11)">
                      <path id="Path_9420" data-name="Path 9420" d="M20.4,60.173l.027-.055c-.007.014-.016.032-.027.055" transform="translate(-20.399 -60.118)" fill="#61619b"/>
                    </g>
                  </g>
                </g>
                <g id="Group_8384" data-name="Group 8384" transform="translate(0 4.488)" opacity="0.19">
                  <g id="Group_8383" data-name="Group 8383">
                    <g id="Group_8382" data-name="Group 8382" clip-path="url(#clip-path-12)">
                      <path id="Path_9421" data-name="Path 9421" d="M17.66,64.89c-5.488,13.491-19.124,55.1,3.076,92.224C-1.459,120,12.173,78.389,17.66,64.89" transform="translate(-8.469 -64.89)" fill="#61619b"/>
                    </g>
                  </g>
                </g>
                <g id="Group_8387" data-name="Group 8387" transform="translate(142.119)" opacity="0.19">
                  <g id="Group_8386" data-name="Group 8386">
                    <g id="Group_8385" data-name="Group 8385" clip-path="url(#clip-path-13)">
                      <path id="Path_9422" data-name="Path 9422" d="M161.05,60.263c-.058-.12-.092-.188-.092-.188s.033.064.092.188" transform="translate(-160.959 -60.075)" fill="#61619b"/>
                    </g>
                  </g>
                </g>
                <path id="Path_9423" data-name="Path 9423" d="M151.946,60.9a125.73,125.73,0,0,1,10.191,38.849C146.541,94.015,73.3,72.9,23.082,159.03a94.632,94.632,0,0,0,21.257,23.186S56.818,193,83,195.092a30.433,30.433,0,0,0,3.558.1c1.206.007,1.617-.052,2.648-.1,26.182-2.1,38.663-12.876,38.663-12.876,56.874-45.729,27.742-113.43,24.076-121.319" transform="translate(-9.463 -60.131)" fill="#61619b" opacity="0.681"/>
                <g id="Group_8390" data-name="Group 8390" transform="translate(9.85 2.384)" opacity="0.19">
                  <g id="Group_8389" data-name="Group 8389">
                    <g id="Group_8388" data-name="Group 8388" clip-path="url(#clip-path-14)">
                      <path id="Path_9424" data-name="Path 9424" d="M19.038,63.154c.077-.18.153-.357.225-.522-.072.165-.147.341-.225.522" transform="translate(-19.038 -62.633)" fill="#61619b"/>
                    </g>
                  </g>
                </g>
                <g id="Group_8393" data-name="Group 8393" transform="translate(12.324 96.806)" opacity="0.19">
                  <g id="Group_8392" data-name="Group 8392" transform="translate(0)">
                    <g id="Group_8391" data-name="Group 8391" clip-path="url(#clip-path-15)">
                      <path id="Path_9425" data-name="Path 9425" d="M22.987,166.036q-.667-1.043-1.295-2.09.629,1.047,1.295,2.09" transform="translate(-21.692 -163.946)" fill="#61619b"/>
                    </g>
                  </g>
                </g>
                <g id="Group_8396" data-name="Group 8396" transform="translate(142.213 0.195)" opacity="0.19">
                  <g id="Group_8395" data-name="Group 8395">
                    <g id="Group_8394" data-name="Group 8394" clip-path="url(#clip-path-16)">
                      <path id="Path_9426" data-name="Path 9426" d="M161.329,60.853c-.117-.251-.208-.443-.269-.569.062.128.153.319.269.569" transform="translate(-161.06 -60.284)" fill="#61619b"/>
                    </g>
                  </g>
                </g>
                <g id="Group_8399" data-name="Group 8399" transform="translate(9.234 3.745)" opacity="0.19">
                  <g id="Group_8398" data-name="Group 8398">
                    <g id="Group_8397" data-name="Group 8397" clip-path="url(#clip-path-17)">
                      <path id="Path_9427" data-name="Path 9427" d="M18.376,64.731l.263-.639-.263.639" transform="translate(-18.376 -64.093)" fill="#61619b"/>
                    </g>
                  </g>
                </g>
                <g id="Group_8402" data-name="Group 8402" transform="translate(9.556 3.036)" opacity="0.19">
                  <g id="Group_8401" data-name="Group 8401">
                    <g id="Group_8400" data-name="Group 8400" clip-path="url(#clip-path-18)">
                      <path id="Path_9428" data-name="Path 9428" d="M18.722,63.9c.082-.195.161-.385.238-.566-.076.181-.156.37-.238.566" transform="translate(-18.722 -63.333)" fill="#61619b"/>
                    </g>
                  </g>
                </g>
              </g>
            </g>
          </g>
          <g id="Group_8408" data-name="Group 8408" transform="translate(32.831 53.887)" opacity="0.101">
            <g id="Group_8407" data-name="Group 8407">
              <g id="Group_8406" data-name="Group 8406" clip-path="url(#clip-path-19)">
                <path id="Path_9429" data-name="Path 9429" d="M148.9,61.343l-.113-.192a6.776,6.776,0,0,0-12.574,2.8l-2.774,28.426a99.579,99.579,0,0,1-8.249,31.083l-4.838,10.789a59.123,59.123,0,0,1-42.884,33.886A53.256,53.256,0,0,1,46,164.543l-5.572-2.46a3.69,3.69,0,0,0-4.191,5.888,96.592,96.592,0,0,0,10.949,10.1s11.874,10.257,36.788,12.252a29.13,29.13,0,0,0,3.386.094c1.147.007,1.538-.05,2.518-.094,24.914-2,36.788-12.252,36.788-12.252C180.856,134.5,152.987,69.957,149.56,62.592q-.3-.64-.657-1.249" transform="translate(-35.227 -57.82)" fill="#61619b"/>
              </g>
            </g>
          </g>
          <g id="Group_8411" data-name="Group 8411" transform="translate(14.654 13.351)" opacity="0.1">
            <g id="Group_8410" data-name="Group 8410">
              <g id="Group_8409" data-name="Group 8409" clip-path="url(#clip-path-20)">
                <path id="Path_9430" data-name="Path 9430" d="M82.635,26.439l.592,2.476A115.555,115.555,0,0,1,82.4,85.9l-1.038,3.844a117.771,117.771,0,0,1-31.9,54.03,24.2,24.2,0,0,1-11.44,6.188c-8.956,2.038-17.547-2.994-18.838-13.226l-2.8-22.682a87.872,87.872,0,0,1,7.657-48.085l5.478-11.681A114.99,114.99,0,0,1,54.638,19.553l.066-.063A19.041,19.041,0,0,1,64.887,14.51,15.784,15.784,0,0,1,82.635,26.439" transform="translate(-15.724 -14.325)" fill="#fff"/>
              </g>
            </g>
          </g>
          <path id="Path_9431" data-name="Path 9431" d="M44.333,36.845v22.64A3.086,3.086,0,0,0,47.7,62.557l2.979-.271a20.922,20.922,0,0,0,18.888-18.44,2.757,2.757,0,0,0-2.014-2.974l-21-5.72a1.755,1.755,0,0,0-2.216,1.693" transform="translate(-3.015 -2.386)" fill="#61619b"/>
          <g id="Group_8414" data-name="Group 8414" transform="translate(42.692 36.433)" opacity="0.2">
            <g id="Group_8413" data-name="Group 8413">
              <g id="Group_8412" data-name="Group 8412" clip-path="url(#clip-path-21)">
                <path id="Path_9432" data-name="Path 9432" d="M53.105,43.731a17.672,17.672,0,0,0-5.319-4.5,1.377,1.377,0,0,0-1.979,1.235V55.971A5.146,5.146,0,0,0,51.42,61.1l.041,0a18.515,18.515,0,0,0,6.058-1.613,4.541,4.541,0,0,0,1.842-6.688c-2.811-4.114-3.729-5.538-6.255-9.06" transform="translate(-45.808 -39.092)" fill="#fff"/>
              </g>
            </g>
          </g>
          <path id="Path_9433" data-name="Path 9433" d="M127.112,29.827l-19.928,1.446A2.723,2.723,0,0,0,104.7,34.43l.429,2.6a18.464,18.464,0,0,0,17.437,15.448,2.433,2.433,0,0,0,2.489-1.962l3.693-18.851a1.549,1.549,0,0,0-1.632-1.843" transform="translate(-7.118 -2.028)" fill="#61619b"/>
          <g id="Group_8417" data-name="Group 8417" transform="translate(99.271 29.218)" opacity="0.2">
            <g id="Group_8416" data-name="Group 8416">
              <g id="Group_8415" data-name="Group 8415" clip-path="url(#clip-path-22)">
                <path id="Path_9434" data-name="Path 9434" d="M121.97,37.986a15.589,15.589,0,0,0,3.624-4.969,1.215,1.215,0,0,0-1.213-1.663l-13.65.991a4.541,4.541,0,0,0-4.153,5.268l.006.035a16.361,16.361,0,0,0,1.807,5.229,4.008,4.008,0,0,0,6,1.193c3.441-2.736,4.637-3.635,7.575-6.084" transform="translate(-106.516 -31.35)" fill="#fff"/>
              </g>
            </g>
          </g>
          <path id="Path_9435" data-name="Path 9435" d="M60.1,1.024,57.015,17.039a2.21,2.21,0,0,0,1.941,2.626l2.126.211A15,15,0,0,0,76.836,9.38,1.989,1.989,0,0,0,75.816,7L61.893.131a1.262,1.262,0,0,0-1.8.893" transform="translate(-3.875 0)" fill="#61619b"/>
          <g id="Group_8420" data-name="Group 8420" transform="translate(54.55 2.775)" opacity="0.2">
            <g id="Group_8419" data-name="Group 8419">
              <g id="Group_8418" data-name="Group 8418" clip-path="url(#clip-path-23)">
                <path id="Path_9436" data-name="Path 9436" d="M65.382,7.075a12.63,12.63,0,0,0-3.117-3.9.984.984,0,0,0-1.555.607L58.6,14.749a3.687,3.687,0,0,0,3.239,4.382l.029,0a13.132,13.132,0,0,0,4.468-.324,3.285,3.285,0,0,0,2.2-4.482c-1.411-3.289-1.861-4.42-3.154-7.253" transform="translate(-58.531 -2.977)" fill="#fff"/>
              </g>
            </g>
          </g>
          <path id="Path_9439" data-name="Path 9439" d="M21.273,99.192l.738.913a5.89,5.89,0,0,1-.619,8.057.806.806,0,0,1-.971.085l-5.98-3.773a2.226,2.226,0,0,1,.582-4.024l5.4-1.527a.8.8,0,0,1,.845.268" transform="translate(-0.912 -6.726)" fill="#61619b"/>
          <path id="Path_9440" data-name="Path 9440" d="M121.789,87.258l-1.158-.188a5.889,5.889,0,0,1-4.912-6.417.8.8,0,0,1,.667-.711l6.971-1.176a2.226,2.226,0,0,1,2.25,3.388L122.6,86.894a.8.8,0,0,1-.809.363" transform="translate(-7.868 -5.355)" fill="#61619b"/>
          <path id="Path_9441" data-name="Path 9441" d="M106.22,156.68l.422-1.045a6.39,6.39,0,0,1,7.117-3.817.664.664,0,0,1,.535.692l-.348,6.54a2.33,2.33,0,0,1-3.685,1.7l-3.866-3.284a.677.677,0,0,1-.175-.784" transform="translate(-7.221 -10.317)" fill="#61619b"/>
          <path id="Path_9442" data-name="Path 9442" d="M142.131,175.211l.582,14.136a4.933,4.933,0,0,1-5.419,5.111l-16.272-1.626a2.452,2.452,0,0,1-2.186-2.776,19.841,19.841,0,0,1,18.754-17.1l1.977-.089a2.453,2.453,0,0,1,2.563,2.35" transform="translate(-8.081 -11.757)" fill="#61619b"/>
          <path id="Path_9443" data-name="Path 9443" d="M71.329,173.184l-13.286,4.809a3.71,3.71,0,0,1-4.967-3.282l-.83-14.944a3.839,3.839,0,0,1,3.544-4.042,17.879,17.879,0,0,1,18.194,11.831h0a4.412,4.412,0,0,1-2.654,5.628" transform="translate(-3.553 -10.588)" fill="#61619b"/>
          <g id="Group_8423" data-name="Group 8423" transform="translate(50.33 146.821)" opacity="0.2">
            <g id="Group_8422" data-name="Group 8422">
              <g id="Group_8421" data-name="Group 8421" clip-path="url(#clip-path-24)">
                <path id="Path_9444" data-name="Path 9444" d="M58.23,157.535h2.123a1.884,1.884,0,0,1,1.572,2.921l-5.709,8.652a.837.837,0,0,1-1.532-.383l-.666-7.125a3.447,3.447,0,0,1,1.157-2.912,4.628,4.628,0,0,1,3.056-1.153" transform="translate(-54.003 -157.535)" fill="#fff"/>
              </g>
            </g>
          </g>
          <path id="Path_9445" data-name="Path 9445" d="M158.66,103.822l9.341,10.6a3.71,3.71,0,0,1-1.237,5.825l-13.6,6.245a3.84,3.84,0,0,1-5.059-1.817,17.881,17.881,0,0,1,4.347-21.264,4.412,4.412,0,0,1,6.21.409" transform="translate(-9.952 -6.959)" fill="#61619b"/>
          <g id="Group_8426" data-name="Group 8426" transform="translate(137.958 110.389)" opacity="0.2">
            <g id="Group_8425" data-name="Group 8425">
              <g id="Group_8424" data-name="Group 8424" clip-path="url(#clip-path-25)">
                <path id="Path_9446" data-name="Path 9446" d="M148.937,123l-.777-1.976a1.883,1.883,0,0,1,2.143-2.532l10.141,2.145a.837.837,0,0,1,.205,1.566l-6.386,3.229a3.453,3.453,0,0,1-3.134-.009A4.632,4.632,0,0,1,148.937,123" transform="translate(-148.026 -118.445)" fill="#fff"/>
              </g>
            </g>
          </g>
          <path id="Path_9447" data-name="Path 9447" d="M23.512,161.218l-13.225-2.225c-2.327-.391-3.825-2.724-2.985-4.649l5.053-11.591a3.419,3.419,0,0,1,4.592-1.48c7.114,3.075,11.623,9.989,11.008,16.883a3.622,3.622,0,0,1-4.443,3.062" transform="translate(-0.481 -9.585)" fill="#61619b"/>
          <g id="Group_8429" data-name="Group 8429" transform="translate(10.408 133.423)" opacity="0.2">
            <g id="Group_8428" data-name="Group 8428">
              <g id="Group_8427" data-name="Group 8427" clip-path="url(#clip-path-26)">
                <path id="Path_9448" data-name="Path 9448" d="M18.563,143.711l1.816.933a1.593,1.593,0,0,1,.219,2.885l-8.223,3.99a.835.835,0,0,1-1.163-.96l2.177-5.646a2.744,2.744,0,0,1,2.114-1.679,4.832,4.832,0,0,1,3.06.477" transform="translate(-11.168 -143.159)" fill="#fff"/>
              </g>
            </g>
          </g>
        </g>
      </g>
      <g id="Group_8432" data-name="Group 8432">
        <path id="Path_9449" data-name="Path 9449" d="M137.574,37.886,134.789,55.63l-8.2-4.365L118.129,67.3,92.592,71.421,78.15,101H60.107L46.217,147.517,26.625,162.911" fill="none" stroke="#61619b" stroke-width="1"/>
        <path id="Path_9450" data-name="Path 9450" d="M92.238,71.064l-8.216-5.018,4.9-7.334L61.732,43.6" transform="translate(-32 29.849)" fill="none" stroke="#61619b" stroke-width="1"/>
        <path id="Path_9460" data-name="Path 9460" d="M42.383,138.736c1.024,5.919-1.02,11.216-4.564,11.829s-7.249-3.689-8.273-9.608,1.02-11.215,4.564-11.828,7.249,3.688,8.273,9.607" transform="translate(-1.991 -8.779)" fill="#fff" opacity="0.3"/>
        <path id="Path_9461" data-name="Path 9461" d="M43.974,71.365l-.378,11.1a90.207,90.207,0,0,1-7.039,31.985L34.4,119.56a1.354,1.354,0,0,1-2.555-.171l-2.839-10.474a36.3,36.3,0,0,1,6.538-31.982l5.3-6.714a1.754,1.754,0,0,1,3.131,1.146" transform="translate(-1.887 -4.73)" fill="#fff" opacity="0.3"/>
      </g>
      <path id="Path_9451" data-name="Path 9451" d="M74.07,91.9l4.666-.5a9.357,9.357,0,0,1,9.6,5.631l3.058,7.164a6.75,6.75,0,0,1-5.221,9.328l-7.061,1.043a8.323,8.323,0,0,1-9.284-6.192L67.9,100.76A7.147,7.147,0,0,1,74.07,91.9" transform="translate(-4.604 -6.213)" fill="#61619b"/>
      <g id="Group_8434" data-name="Group 8434" transform="translate(65.09 86.834)" opacity="0.2">
        <g id="Group_8433" data-name="Group 8433" clip-path="url(#clip-path-27)">
          <path id="Path_9452" data-name="Path 9452" d="M69.84,98.422v2.408a12.635,12.635,0,0,0,3.073,8.258l.763.884a.663.663,0,0,0,1.164-.432v-3.614a4.888,4.888,0,0,1,2.5-4.268L82.81,98.6a1.94,1.94,0,0,0-.251-3.5L79,93.731a8.4,8.4,0,0,0-5.733-.108,5.072,5.072,0,0,0-3.43,4.8" transform="translate(-69.84 -93.171)" fill="#fff"/>
        </g>
      </g>
    </g>
  </g>
</svg>
