<svg xmlns="http://www.w3.org/2000/svg" xmlns:xlink="http://www.w3.org/1999/xlink" width="60.796" height="60.796" viewBox="0 0 60.796 60.796">
  <defs>
    <clipPath id="clip-path">
      <rect id="Rectangle_2438" data-name="Rectangle 2438" width="56.922" height="56.923" fill="none"/>
    </clipPath>
    <clipPath id="clip-path-2">
      <rect id="Rectangle_2439" data-name="Rectangle 2439" width="41.626" height="41.626" fill="none"/>
    </clipPath>
    <clipPath id="clip-path-3">
      <rect id="Rectangle_2440" data-name="Rectangle 2440" width="28.321" height="8.26" fill="none"/>
    </clipPath>
    <clipPath id="clip-path-4">
      <rect id="Rectangle_2441" data-name="Rectangle 2441" width="4.958" height="6.783" fill="none"/>
    </clipPath>
    <clipPath id="clip-path-5">
      <rect id="Rectangle_2442" data-name="Rectangle 2442" width="14.215" height="29.778" fill="none"/>
    </clipPath>
    <clipPath id="clip-path-6">
      <rect id="Rectangle_2443" data-name="Rectangle 2443" width="23.257" height="24.568" fill="none"/>
    </clipPath>
    <clipPath id="clip-path-7">
      <rect id="Rectangle_2444" data-name="Rectangle 2444" width="32.124" height="32.124" fill="none"/>
    </clipPath>
    <clipPath id="clip-path-8">
      <rect id="Rectangle_2445" data-name="Rectangle 2445" width="4.914" height="5.789" fill="none"/>
    </clipPath>
    <clipPath id="clip-path-9">
      <rect id="Rectangle_2446" data-name="Rectangle 2446" width="4.53" height="4.275" fill="none"/>
    </clipPath>
    <clipPath id="clip-path-10">
      <rect id="Rectangle_2447" data-name="Rectangle 2447" width="6.53" height="5.908" fill="none"/>
    </clipPath>
    <clipPath id="clip-path-11">
      <rect id="Rectangle_2448" data-name="Rectangle 2448" width="4.124" height="3.731" fill="none"/>
    </clipPath>
    <clipPath id="clip-path-12">
      <rect id="Rectangle_2449" data-name="Rectangle 2449" width="47.219" height="40.131" fill="none"/>
    </clipPath>
  </defs>
  <g id="Group_8338" data-name="Group 8338" transform="translate(1.5 1.5)">
    <path id="Path_7472" data-name="Path 7472" d="M772.906,30.4A28.875,28.875,0,1,1,755.566,3.9c1.371.6,4.166,1.578,5.04,2.847.484.7.5,2.115.708,2.952q.413,1.677.929,3.326a6.622,6.622,0,0,1,.472,3.4q.655-2.791,1.144-5.617a3.323,3.323,0,0,1,1.906,1.106c4.916,4.611,7.141,11.833,7.141,18.477" transform="translate(-715.11 -1.501)"/>
    <path id="Path_7473" data-name="Path 7473" d="M772.906,30.4A28.875,28.875,0,1,1,755.566,3.9c1.371.6,4.166,1.578,5.04,2.847.484.7.5,2.115.708,2.952q.413,1.677.929,3.326a6.622,6.622,0,0,1,.472,3.4q.655-2.791,1.144-5.617a3.323,3.323,0,0,1,1.906,1.106C770.681,16.533,772.906,23.755,772.906,30.4Z" transform="translate(-715.11 -1.501)" fill="none" stroke="#000" stroke-linecap="round" stroke-linejoin="round" stroke-width="3"/>
    <g id="Group_6276" data-name="Group 6276" transform="translate(0.286 0.286)" style="mix-blend-mode: normal;isolation: isolate">
      <g id="Group_6275" data-name="Group 6275">
        <g id="Group_6274" data-name="Group 6274" clip-path="url(#clip-path)">
          <path id="Path_7474" data-name="Path 7474" d="M766.477,13.241a1.886,1.886,0,0,0-1.485-.683c-.321,1.855-.568,3.918-1,5.75.256-1.113-.42-3.653-.761-4.743s-.521-1.874-.792-2.975a7.784,7.784,0,0,0-1.045-2.44c-.861-1.249-3.614-2.214-4.964-2.8a28.5,28.5,0,0,0-28.159,3.1L728.906,8l2.272,2.88,6.257.427-3.442.326a2.552,2.552,0,0,0-.908.262l-.6.3a1.611,1.611,0,0,0-.667.627l-.051.087a1.678,1.678,0,0,0-.229.87l.014.96-.729.614V11.328l-2.545-2.882a28.468,28.468,0,0,0,4.2,48.533l.91-.936.511-2.279,1.08-1.395-.186-1.387,2.229.366-.251.755-.81.031-1.611,1.375-.53,1.562.409,2.7a28.474,28.474,0,0,0,39.283-26.33c0-6.544-2.191-13.656-7.033-18.2" transform="translate(-716.588 -2.978)" fill="#009145"/>
        </g>
      </g>
    </g>
    <path id="Path_7475" data-name="Path 7475" d="M742.986,206.706c.689,2.376,3.512,5.3,3.512,5.3a6.044,6.044,0,0,1-3.512-5.3" transform="translate(-737.575 -166.884)"/>
    <path id="Path_7476" data-name="Path 7476" d="M987.8,116.168c-.069-5.3-1.377-7.4-1.377-7.4l.632.871a5.4,5.4,0,0,1,1.007,3.664Z" transform="translate(-933.773 -87.95)"/>
    <path id="Path_7477" data-name="Path 7477" d="M796.669,61.549A22.453,22.453,0,1,1,774.215,39.1a22.453,22.453,0,0,1,22.453,22.453" transform="translate(-744.65 -31.8)"/>
    <g id="Group_6279" data-name="Group 6279" transform="translate(8.1 8.283)" style="mix-blend-mode: normal;isolation: isolate">
      <g id="Group_6278" data-name="Group 6278">
        <g id="Group_6277" data-name="Group 6277" clip-path="url(#clip-path-2)">
          <path id="Path_7478" data-name="Path 7478" d="M798.478,65a20.813,20.813,0,1,1-20.813-20.813A20.813,20.813,0,0,1,798.478,65" transform="translate(-756.852 -44.187)" fill="#65d190"/>
        </g>
      </g>
    </g>
    <g id="Group_6282" data-name="Group 6282" transform="translate(12.55 0.286)" style="mix-blend-mode: normal;isolation: isolate">
      <g id="Group_6281" data-name="Group 6281">
        <g id="Group_6280" data-name="Group 6280" clip-path="url(#clip-path-3)">
          <path id="Path_7479" data-name="Path 7479" d="M808.1,5.656c-.273-.113-.525-.217-.74-.311a28.5,28.5,0,0,0-27.581,2.69h0L779.836,8,781.21,9.74h0l.9,1.137,5.285.361-3.8-.836-.219-1.628s7.418-6.65,24.725-3.119" transform="translate(-779.781 -2.978)" fill="#65d190"/>
        </g>
      </g>
    </g>
    <path id="Path_7480" data-name="Path 7480" d="M795.157,46.473l-.6.3a1.61,1.61,0,0,0-.666.626l-.051.087a1.677,1.677,0,0,0-.229.87l.013.941a29.678,29.678,0,0,1,5.886-3.417l-3.442.326a2.548,2.548,0,0,0-.908.262" transform="translate(-778.374 -37.272)" fill="#65d190"/>
    <g id="Group_6285" data-name="Group 6285" transform="translate(47.693 9.841)" style="mix-blend-mode: normal;isolation: isolate">
      <g id="Group_6284" data-name="Group 6284">
        <g id="Group_6283" data-name="Group 6283" clip-path="url(#clip-path-4)">
          <path id="Path_7481" data-name="Path 7481" d="M961.873,52.239l-1,5.75,1.374-3.978A9.482,9.482,0,0,1,965.832,59l-1.864-5.473S963,52,961.873,52.239" transform="translate(-960.874 -52.213)" fill="#65d190"/>
        </g>
      </g>
    </g>
    <path id="Path_7482" data-name="Path 7482" d="M790.388,61.253l-.008,1.164-.777.206.156-.788Z" transform="translate(-775.147 -49.658)"/>
    <g id="Group_6288" data-name="Group 6288" transform="translate(0.286 5.754)" style="mix-blend-mode: normal;isolation: isolate">
      <g id="Group_6287" data-name="Group 6287">
        <g id="Group_6286" data-name="Group 6286" clip-path="url(#clip-path-5)">
          <path id="Path_7483" data-name="Path 7483" d="M730.074,38.743c.221-.236.474-.5.728-.745l-.84-3.427-1.69-3.418A28.482,28.482,0,0,0,717.4,60.93a79.936,79.936,0,0,1,2.622-16.2,2.976,2.976,0,0,0,3.44-2.046,12.32,12.32,0,0,1,2.185-4.237l2.621-3.215,1.4.731Z" transform="translate(-716.587 -31.152)" fill="#65d190"/>
        </g>
      </g>
    </g>
    <g id="Group_6291" data-name="Group 6291" transform="translate(11.898 11.042)" style="mix-blend-mode: normal;isolation: isolate">
      <g id="Group_6290" data-name="Group 6290">
        <g id="Group_6289" data-name="Group 6289" clip-path="url(#clip-path-6)">
          <path id="Path_7484" data-name="Path 7484" d="M795.333,60.11c5.005,3.447,5.8,10.978,1.779,16.819s-11.342,7.783-16.348,4.335-5.8-10.978-1.779-16.819,11.342-7.783,16.348-4.336" transform="translate(-776.42 -58.404)" fill="#9ce2b3"/>
        </g>
      </g>
    </g>
    <g id="Group_6294" data-name="Group 6294" transform="translate(14.905 15.088)" opacity="0.15">
      <g id="Group_6293" data-name="Group 6293">
        <g id="Group_6292" data-name="Group 6292" clip-path="url(#clip-path-7)">
          <path id="Path_7485" data-name="Path 7485" d="M817.415,79.253a18.116,18.116,0,0,1-25.5,25.5,18.116,18.116,0,1,0,25.5-25.5" transform="translate(-791.919 -79.253)"/>
        </g>
      </g>
    </g>
    <g id="Group_6297" data-name="Group 6297" transform="translate(37.512 19.345)" style="mix-blend-mode: normal;isolation: isolate">
      <g id="Group_6296" data-name="Group 6296">
        <g id="Group_6295" data-name="Group 6295" clip-path="url(#clip-path-8)">
          <path id="Path_7486" data-name="Path 7486" d="M910.872,101.191a2.933,2.933,0,1,1-2.457,2.895,2.7,2.7,0,0,1,2.457-2.895" transform="translate(-908.415 -101.191)" fill="#9ce2b3"/>
        </g>
      </g>
    </g>
    <g id="Group_6300" data-name="Group 6300" transform="translate(11.384 34.533)" style="mix-blend-mode: normal;isolation: isolate">
      <g id="Group_6299" data-name="Group 6299">
        <g id="Group_6298" data-name="Group 6298" clip-path="url(#clip-path-9)">
          <path id="Path_7487" data-name="Path 7487" d="M777.993,182.937a2.406,2.406,0,1,1-.812-3.006,2.217,2.217,0,0,1,.812,3.006" transform="translate(-773.773 -179.453)" fill="#9ce2b3"/>
        </g>
      </g>
    </g>
    <g id="Group_6303" data-name="Group 6303" transform="translate(17.903 14.129)" opacity="0.4" style="mix-blend-mode: normal;isolation: isolate">
      <g id="Group_6302" data-name="Group 6302">
        <g id="Group_6301" data-name="Group 6301" clip-path="url(#clip-path-10)">
          <path id="Path_7488" data-name="Path 7488" d="M813.665,75.866a3.383,3.383,0,1,1-4.234-1.2,3.131,3.131,0,0,1,4.234,1.2" transform="translate(-807.364 -74.31)" fill="#fff"/>
        </g>
      </g>
    </g>
    <g id="Group_6306" data-name="Group 6306" transform="translate(15.134 20.831)" opacity="0.4" style="mix-blend-mode: normal;isolation: isolate">
      <g id="Group_6305" data-name="Group 6305">
        <g id="Group_6304" data-name="Group 6304" clip-path="url(#clip-path-11)">
          <path id="Path_7489" data-name="Path 7489" d="M797.075,109.827a2.136,2.136,0,1,1-2.674-.76,1.978,1.978,0,0,1,2.674.76" transform="translate(-793.096 -108.844)" fill="#fff"/>
        </g>
      </g>
    </g>
    <g id="Group_6309" data-name="Group 6309" transform="translate(9.989 17.078)" opacity="0.15">
      <g id="Group_6308" data-name="Group 6308">
        <g id="Group_6307" data-name="Group 6307" clip-path="url(#clip-path-12)">
          <path id="Path_7490" data-name="Path 7490" d="M777.271,267.808l.7-.724a20.287,20.287,0,0,1-5.807-2.512,28.468,28.468,0,0,0,5.1,3.236" transform="translate(-771.084 -230.599)"/>
          <path id="Path_7491" data-name="Path 7491" d="M766.614,259.931l-.027-.023.027.023" transform="translate(-766.587 -226.839)"/>
          <path id="Path_7492" data-name="Path 7492" d="M842.176,102.176c-2.484,2.932-2.741,4.477-2.741,4.477l-4.017,7.328-6.027,6.241-6.8,3.81s-.915,2.661-5.714,3.209a46.491,46.491,0,0,1-11.385-2.758l-.11.323.124.819a17.765,17.765,0,0,0,2.188,1.069s-.862-.153-2.1-.471l.194,1.283a28.539,28.539,0,0,0,36.837-38c.007.033,2.03,9.744-.45,12.671" transform="translate(-797.853 -89.505)"/>
          <path id="Path_7493" data-name="Path 7493" d="M784.61,257.951l.216-.965a15.981,15.981,0,0,1-4.8-2.954,18.477,18.477,0,0,0,4.584,3.918" transform="translate(-777.418 -222.105)"/>
        </g>
      </g>
    </g>
    <path id="Path_7494" data-name="Path 7494" d="M826.61,107.418c-.239-.97-.568-1.9-.886-2.8l-.143-.4a1.322,1.322,0,0,0-.793-.995c-.027-.011-.054-.021-.081-.03a1.252,1.252,0,0,0-1.153.2c-1.124.656-2.312,1.285-3.535,1.87-.09.043-.18.088-.269.133a4.426,4.426,0,0,1-.647.285,1.12,1.12,0,0,0-.229.1,9.683,9.683,0,0,1-1.084.5l-.347.146c-.173.074-.348.146-.522.218a12.346,12.346,0,0,0-2.706,1.4c-.153.113-.3.229-.445.346a13.986,13.986,0,0,0-4.23-3.165c-.753-.383-1.525-.684-2.272-.975l-.329-.129a1.279,1.279,0,0,0-1.219-.039c-.027.013-.053.028-.079.043a1.238,1.238,0,0,0-.592.968c-.2,1.065-.448,2.157-.743,3.244-.023.082-.043.165-.064.249a3.611,3.611,0,0,1-.163.535,1.109,1.109,0,0,0-.075.237,8.025,8.025,0,0,1-.27.94c-.033.1-.066.2-.1.3-.048.149-.1.3-.146.447a10.511,10.511,0,0,0-.6,2.527,8.879,8.879,0,0,0,2.868,7.475,8.638,8.638,0,0,0,1.3.988q1.913,1.223,3.822,2.453l.039.039a1.111,1.111,0,0,0,.762.3c.019,0,.039,0,.058,0s.026,0,.039,0a1.094,1.094,0,0,0,.155-.011l3.817-.542a1.117,1.117,0,0,0,.368-.12c.038-.01.077-.014.116-.021.083-.014.167-.029.249-.048a17.088,17.088,0,0,0,4.578-1.708,11.3,11.3,0,0,0,5.634-7.019,15.407,15.407,0,0,0-.083-7.934m-14.6,9.048c0-.027,0-.055,0-.081a8.207,8.207,0,0,1,1.45-4.478,7.525,7.525,0,0,1,.451,4.77,12.311,12.311,0,0,1-1.227,3.3c-.014.028-.031.054-.047.08-.027.045-.06.1-.093.162-.124-1.12-.3-2.421-.535-3.749m-4.727,2.955a6.665,6.665,0,0,1-2.176-5.684,8.691,8.691,0,0,1,.5-2c.052-.157.1-.313.154-.47l.092-.282a10.626,10.626,0,0,0,.316-1.092,5.933,5.933,0,0,0,.236-.772c.018-.07.036-.141.055-.212.215-.793.408-1.588.575-2.376.522.207,1.022.417,1.5.663h0a11.717,11.717,0,0,1,3.643,2.741,10.108,10.108,0,0,0-1.3,1.98,13.7,13.7,0,0,0-.627-1.527,1.112,1.112,0,1,0-2,.982,21.456,21.456,0,0,1,1.527,5.279,11.025,11.025,0,0,0,.125,1.539q.239,1.662.473,3.325-1.062-.682-2.125-1.363a6.453,6.453,0,0,1-.973-.733m17.27-4.662a9.036,9.036,0,0,1-4.576,5.671,14.9,14.9,0,0,1-3.991,1.482c-.04.009-.08.015-.121.022a2.664,2.664,0,0,0-.594.156l-.3.042c2.433-2.575,6.078-6.769,7.527-10.178a1.112,1.112,0,1,0-2.047-.87,29.352,29.352,0,0,1-4.495,6.614c.049-.192.095-.384.134-.576a9.676,9.676,0,0,0-1.016-6.934c.149-.123.3-.244.463-.362a10.507,10.507,0,0,1,2.238-1.134c.181-.075.363-.15.544-.227l.328-.138a12.353,12.353,0,0,0,1.228-.564,6.824,6.824,0,0,0,.873-.385l.235-.116c.959-.459,1.9-.945,2.806-1.449.254.722.488,1.42.664,2.135a13.257,13.257,0,0,1,.1,6.81" transform="translate(-785.826 -83.407)" fill="#fff"/>
    <path id="Path_7495" data-name="Path 7495" d="M826.61,107.418c-.239-.97-.568-1.9-.886-2.8l-.143-.4a1.322,1.322,0,0,0-.793-.995c-.027-.011-.054-.021-.081-.03a1.252,1.252,0,0,0-1.153.2c-1.124.656-2.312,1.285-3.535,1.87-.09.043-.18.088-.269.133a4.426,4.426,0,0,1-.647.285,1.12,1.12,0,0,0-.229.1,9.683,9.683,0,0,1-1.084.5l-.347.146c-.173.074-.348.146-.522.218a12.346,12.346,0,0,0-2.706,1.4c-.153.113-.3.229-.445.346a13.986,13.986,0,0,0-4.23-3.165c-.753-.383-1.525-.684-2.272-.975l-.329-.129a1.279,1.279,0,0,0-1.219-.039c-.027.013-.053.028-.079.043a1.238,1.238,0,0,0-.592.968c-.2,1.065-.448,2.157-.743,3.244-.023.082-.043.165-.064.249a3.611,3.611,0,0,1-.163.535,1.109,1.109,0,0,0-.075.237,8.025,8.025,0,0,1-.27.94c-.033.1-.066.2-.1.3-.048.149-.1.3-.146.447a10.511,10.511,0,0,0-.6,2.527,8.879,8.879,0,0,0,2.868,7.475,8.638,8.638,0,0,0,1.3.988q1.913,1.223,3.822,2.453l.039.039a1.111,1.111,0,0,0,.762.3c.019,0,.039,0,.058,0s.026,0,.039,0a1.094,1.094,0,0,0,.155-.011l3.817-.542a1.117,1.117,0,0,0,.368-.12c.038-.01.077-.014.116-.021.083-.014.167-.029.249-.048a17.088,17.088,0,0,0,4.578-1.708,11.3,11.3,0,0,0,5.634-7.019A15.407,15.407,0,0,0,826.61,107.418Zm-14.6,9.048c0-.027,0-.055,0-.081a8.207,8.207,0,0,1,1.45-4.478,7.525,7.525,0,0,1,.451,4.77,12.311,12.311,0,0,1-1.227,3.3c-.014.028-.031.054-.047.08-.027.045-.06.1-.093.162C812.416,119.1,812.243,117.795,812.006,116.466Zm-4.727,2.955a6.665,6.665,0,0,1-2.176-5.684,8.691,8.691,0,0,1,.5-2c.052-.157.1-.313.154-.47l.092-.282a10.626,10.626,0,0,0,.316-1.092,5.933,5.933,0,0,0,.236-.772c.018-.07.036-.141.055-.212.215-.793.408-1.588.575-2.376.522.207,1.022.417,1.5.663h0a11.717,11.717,0,0,1,3.643,2.741,10.108,10.108,0,0,0-1.3,1.98,13.7,13.7,0,0,0-.627-1.527,1.112,1.112,0,1,0-2,.982,21.456,21.456,0,0,1,1.527,5.279,11.025,11.025,0,0,0,.125,1.539q.239,1.662.473,3.325-1.062-.682-2.125-1.363A6.453,6.453,0,0,1,807.279,119.422Zm17.27-4.662a9.036,9.036,0,0,1-4.576,5.671,14.9,14.9,0,0,1-3.991,1.482c-.04.009-.08.015-.121.022a2.664,2.664,0,0,0-.594.156l-.3.042c2.433-2.575,6.078-6.769,7.527-10.178a1.112,1.112,0,1,0-2.047-.87,29.352,29.352,0,0,1-4.495,6.614c.049-.192.095-.384.134-.576a9.676,9.676,0,0,0-1.016-6.934c.149-.123.3-.244.463-.362a10.507,10.507,0,0,1,2.238-1.134c.181-.075.363-.15.544-.227l.328-.138a12.353,12.353,0,0,0,1.228-.564,6.824,6.824,0,0,0,.873-.385l.235-.116c.959-.459,1.9-.945,2.806-1.449.254.722.488,1.42.664,2.135A13.257,13.257,0,0,1,824.549,114.76Z" transform="translate(-785.826 -83.407)" fill="none" stroke="#fff" stroke-width="1"/>
  </g>
</svg>
