<svg xmlns="http://www.w3.org/2000/svg" xmlns:xlink="http://www.w3.org/1999/xlink" width="178.92" height="65.505" viewBox="0 0 178.92 65.505">
  <defs>
    <clipPath id="clip-path">
      <path id="Path_6664" data-name="Path 6664" d="M0,0H178.92V61.829H0Z" fill="none"/>
    </clipPath>
    <clipPath id="clip-path-2">
      <path id="Path_6205" data-name="Path 6205" d="M147.042,124.559l-.757,11.571a1.94,1.94,0,0,0,1.96,2.057l9.536.025a2.2,2.2,0,0,0,2.176-2.048A1.917,1.917,0,0,0,158,134.086l-6.529-.015.121-2.008,3.632.008a1.94,1.94,0,0,0,1.942-1.805,1.681,1.681,0,0,0-1.739-1.78l-3.618-.007.115-1.9,6.348.012a2.13,2.13,0,0,0,2.176-2,1.933,1.933,0,0,0-1.959-2.029l-9.256-.015h0a2.217,2.217,0,0,0-2.19,2.02" transform="translate(-146.281 -122.539)" fill="none"/>
    </clipPath>
    <linearGradient id="linear-gradient" x1="-2.133" y1="2.311" x2="-2.118" y2="2.311" gradientUnits="objectBoundingBox">
      <stop offset="0" stop-color="#bbbdf8"/>
      <stop offset="0.416" stop-color="#deb4ea"/>
      <stop offset="0.803" stop-color="#fcaddf"/>
      <stop offset="1" stop-color="#fcaddf"/>
    </linearGradient>
    <clipPath id="clip-path-3">
      <path id="Path_6206" data-name="Path 6206" d="M229.461,125.169l-.5,10.625a2.417,2.417,0,0,0,2.462,2.56,2.674,2.674,0,0,0,2.691-2.547l.447-10.628a2.378,2.378,0,0,0-2.439-2.491h0a2.636,2.636,0,0,0-2.656,2.482" transform="translate(-228.957 -122.687)" fill="none"/>
    </clipPath>
    <linearGradient id="linear-gradient-2" x1="-8.339" y1="2.31" x2="-8.302" y2="2.31" xlink:href="#linear-gradient"/>
    <clipPath id="clip-path-4">
      <path id="Path_6207" data-name="Path 6207" d="M271.742,127.952c-.181,4.843,3.681,8.183,8.721,8.2a9.82,9.82,0,0,0,3.578-.714,2.236,2.236,0,0,0,1.52.728,1.913,1.913,0,0,0,2.014-2.08l.105-4.942a2.412,2.412,0,0,0-2.512-2.5l-2.912-.006a1.6,1.6,0,0,0-1.619,1.529,1.531,1.531,0,0,0,1.535,1.6l1.313,0-.044,1.736a6.276,6.276,0,0,1-2.618.491,3.659,3.659,0,0,1-3.9-4,3.848,3.848,0,0,1,3.881-3.895,6.311,6.311,0,0,1,2.673.685,2.342,2.342,0,0,0,.927.247,2.294,2.294,0,0,0,2.058-1.329,2.1,2.1,0,0,0-.92-2.766,10.632,10.632,0,0,0-4.777-1.088h-.018c-4.976,0-8.832,3.4-9.008,8.107" transform="translate(-271.736 -119.845)" fill="none"/>
    </clipPath>
    <linearGradient id="linear-gradient-3" x1="-3.504" y1="2.255" x2="-3.491" y2="2.255" xlink:href="#linear-gradient"/>
    <clipPath id="clip-path-5">
      <path id="Path_6208" data-name="Path 6208" d="M364.961,125.416l-.179,10.645a2.513,2.513,0,0,0,2.549,2.565,2.584,2.584,0,0,0,2.623-2.552l.038-3.235,5.266.012-.02,3.236a2.59,2.59,0,0,0,5.179.013l.012-10.655a2.563,2.563,0,0,0-5.124-.009l-.02,3.106-5.243-.01.036-3.105a2.472,2.472,0,0,0-2.524-2.5h0a2.546,2.546,0,0,0-2.589,2.486" transform="translate(-364.782 -122.93)" fill="none"/>
    </clipPath>
    <linearGradient id="linear-gradient-4" x1="-4.86" y1="2.299" x2="-4.847" y2="2.299" xlink:href="#linear-gradient"/>
    <clipPath id="clip-path-6">
      <path id="Path_6209" data-name="Path 6209" d="M735.3,103.541c.3,4.461,4.692,5.73,9.629,6.744,2.527.489,3.285.827,3.354,1.685.056.71-.5,1.121-2,1.117a16.872,16.872,0,0,1-6.829-1.659,3.563,3.563,0,0,0-1.155-.3,2.741,2.741,0,0,0-2.559,1.674,3.31,3.31,0,0,0-.143,1.16,2.905,2.905,0,0,0,1.631,2.408,21.647,21.647,0,0,0,9.1,2.1c5.869.015,9.434-2.732,9.045-7.23-.36-4.162-4.324-5.757-9.829-6.762-2.47-.445-3.124-.924-3.175-1.621-.046-.623.426-1.1,1.7-1.1,2.1,0,4.4,1.436,6.468,1.439a2.555,2.555,0,0,0,2.538-1.791,2.618,2.618,0,0,0,.095-1.023,3.058,3.058,0,0,0-1.8-2.442,18.833,18.833,0,0,0-7.443-1.387H743.9c-5.865,0-8.867,2.97-8.6,6.985" transform="translate(-735.284 -96.556)" fill="none"/>
    </clipPath>
    <linearGradient id="linear-gradient-5" x1="-7.397" y1="1.9" x2="-7.387" y2="1.9" xlink:href="#linear-gradient"/>
    <clipPath id="clip-path-7">
      <path id="Path_6210" data-name="Path 6210" d="M26.232,103.316,25.011,116.6A3.077,3.077,0,0,0,28.17,120a3.775,3.775,0,0,0,3.726-3.388l.588-6.909,6.416,8.716a3.7,3.7,0,0,0,3.171,1.617,4.55,4.55,0,0,0,4.462-4.171l.954-13.534a3,3,0,0,0-3.14-3.286,3.581,3.581,0,0,0-3.588,3.276l-.5,6.406-6.016-8.077a3.913,3.913,0,0,0-3.23-1.623h-.006a4.827,4.827,0,0,0-4.78,4.284" transform="translate(-24.996 -99.032)" fill="none"/>
    </clipPath>
    <linearGradient id="linear-gradient-6" x1="-0.222" y1="1.958" x2="-0.213" y2="1.958" xlink:href="#linear-gradient"/>
    <clipPath id="clip-path-8">
      <path id="Path_6211" data-name="Path 6211" d="M464.644,135.01,461.756,135l-.023-2.68,2.879.006c1.265,0,1.918.5,1.929,1.357s-.626,1.324-1.887,1.324h-.012m-.441-5.677-2.5-.005-.021-2.514,2.462,0c1.258,0,1.906.44,1.917,1.286.01.818-.6,1.228-1.851,1.228H464.2m-7.523-3.807.037,10.768a2.5,2.5,0,0,0,2.526,2.512l6.419.017c4.092.011,6.146-1.824,6.1-4.378-.049-2.651-1.568-3.315-3.589-3.539a.392.392,0,0,1-.065-.769c1.794-.353,3.02-.926,2.978-3.277a3.312,3.312,0,0,0-.978-2.368c-.95-.9-2.291-1.386-4.532-1.39l-6.425-.011h0a2.411,2.411,0,0,0-2.465,2.436" transform="translate(-456.68 -123.09)" fill="none"/>
    </clipPath>
    <linearGradient id="linear-gradient-7" x1="-6.303" y1="2.294" x2="-6.289" y2="2.294" xlink:href="#linear-gradient"/>
    <clipPath id="clip-path-9">
      <path id="Path_6212" data-name="Path 6212" d="M545.679,128.4c.108,4.639,4.018,8.268,9.013,8.282s8.709-3.628,8.521-8.244c-.188-4.6-4.1-8.111-8.99-8.119h-.017c-4.932,0-8.631,3.546-8.527,8.082" transform="translate(-545.677 -120.317)" fill="none"/>
    </clipPath>
    <linearGradient id="linear-gradient-8" x1="-6.388" y1="2.241" x2="-6.376" y2="2.241" xlink:href="#linear-gradient"/>
    <clipPath id="clip-path-10">
      <path id="Path_6213" data-name="Path 6213" d="M653.645,131.033l-2.484-.005-.174-3.43,2.5.005c1.373,0,2.263.524,2.328,1.7.061,1.1-.765,1.727-2.163,1.727h-.01m-7.9-5.111.485,10.686a2.724,2.724,0,0,0,2.728,2.574,2.413,2.413,0,0,0,2.483-2.561l-.1-2.056,2.71.006,2.582,3.541a2.684,2.684,0,0,0,2.131,1.1,2.319,2.319,0,0,0,2.246-2.508,2.411,2.411,0,0,0-.484-1.281l-1.724-2.112a4.7,4.7,0,0,0,2.144-4.4,4.908,4.908,0,0,0-1.673-3.665c-1.164-1.09-2.975-1.8-5.87-1.8l-5.2-.009h0a2.377,2.377,0,0,0-2.452,2.5" transform="translate(-645.745 -123.426)" fill="none"/>
    </clipPath>
    <linearGradient id="linear-gradient-9" x1="-8.754" y1="2.284" x2="-8.74" y2="2.284" xlink:href="#linear-gradient"/>
  </defs>
  <g id="Group_8294" data-name="Group 8294" transform="translate(-259.513 -115.543)">
    <text id="_" data-name="®" transform="translate(417.606 128.543)" fill="#353557" font-size="12" font-family="Poppins-Regular, Poppins" letter-spacing="0.15em"><tspan x="0" y="0">®</tspan></text>
    <g id="Group_4762" data-name="Group 4762" transform="translate(259.513 119.218)">
      <g id="Group_4426" data-name="Group 4426">
        <g id="Mask_Group_5" data-name="Mask Group 5" clip-path="url(#clip-path)">
          <path id="Path_6192" data-name="Path 6192" d="M168.015,30.013a7.21,7.21,0,0,0-.489.7.616.616,0,0,0-.155.254l-2.493-4.3A3.407,3.407,0,0,0,161.918,25a3.887,3.887,0,0,0-3.863,3.463L157.4,38.718a2.432,2.432,0,0,0,2.515,2.558,2.777,2.777,0,0,0,2.829-2.581l.322-5.524,2.539,3.669a1.667,1.667,0,0,0,1.352.715,1.794,1.794,0,0,0,1.46-.741l1.834-2.56,1.124-1.53-.3,5.951a2.485,2.485,0,0,0,2.609,2.617,2.8,2.8,0,0,0,2.827-2.612l.451-10.209A3.359,3.359,0,0,0,173.5,25a3.935,3.935,0,0,0-3.172,1.674Z" transform="translate(-124.519 -19.779)" fill="#fff"/>
          <path id="Path_6193" data-name="Path 6193" d="M289.332,35.15l.136-6.157a2.627,2.627,0,0,0-2.7-2.632,2.769,2.769,0,0,0-2.831,2.63l-.175,6.3c-.059,2.137-1.194,2.993-2.9,2.991-1.623,0-2.76-.917-2.687-3.081l.208-6.21a2.572,2.572,0,0,0-2.667-2.63,2.824,2.824,0,0,0-2.857,2.628l-.245,6.265c-.212,5.4,3.046,7.618,8.08,7.625s8.52-2.151,8.643-7.726" transform="translate(-215.66 -20.852)" fill="#fff"/>
          <path id="Path_6194" data-name="Path 6194" d="M376.584,39.036a2.648,2.648,0,0,0,2.721,2.652,2.7,2.7,0,0,0,2.769-2.646l.057-9.246h2.777a2.176,2.176,0,1,0,.014-4.349l-10.939,0a2.257,2.257,0,0,0-2.319,2.181,2.175,2.175,0,0,0,2.255,2.165h2.774Z" transform="translate(-294.031 -20.13)" fill="#fff"/>
          <path id="Path_6195" data-name="Path 6195" d="M468.173,37.718l-4.731-10.4a4.13,4.13,0,0,0-3.828-2.383,3.932,3.932,0,0,0-3.737,2.381L451.42,37.644a2.251,2.251,0,0,0-.2.947,2.737,2.737,0,0,0,2.711,2.712c1.149,0,2.091-.662,2.678-2.275l6.309.006.24.634a2.782,2.782,0,0,0,2.587,1.648,2.731,2.731,0,0,0,2.674-2.708,2.443,2.443,0,0,0-.249-.891M457.92,35.389l1.741-4.575,1.887,4.578Z" transform="translate(-356.974 -19.727)" fill="#fff"/>
          <path id="Path_6196" data-name="Path 6196" d="M558.793,26.751a3.586,3.586,0,0,0-2.733-1.262,3.3,3.3,0,0,0-3.422,3.341l.276,10.308a2.778,2.778,0,0,0,2.834,2.629,2.573,2.573,0,0,0,2.651-2.623l-.173-5.354,5.917,6.744a3.372,3.372,0,0,0,2.671,1.247,3.11,3.11,0,0,0,3.174-3.229l-.464-10.5a2.71,2.71,0,0,0-2.808-2.556,2.462,2.462,0,0,0-2.566,2.554l.193,4.98Z" transform="translate(-437.205 -20.165)" fill="#fff"/>
          <path id="Path_6197" data-name="Path 6197" d="M657.529,39.154a2.886,2.886,0,0,0,2.918,2.662,2.509,2.509,0,0,0,2.614-2.657l-.559-9.282h2.8a2.043,2.043,0,0,0,2.143-2.173,2.386,2.386,0,0,0-2.418-2.193L654,25.51a2.1,2.1,0,0,0-2.192,2.19,2.37,2.37,0,0,0,2.417,2.173h2.8Z" transform="translate(-515.66 -20.182)" fill="#fff"/>
          <path id="Path_6198" data-name="Path 6198" d="M178.872,34.4a10.416,10.416,0,0,0-3-6.636,7.8,7.8,0,0,0,.789-4.211,8.271,8.271,0,0,0-4.932-6.793l-.061-.026a24.178,24.178,0,0,0-9.445-1.789H162.2a15.056,15.056,0,0,0-9.632,2.944l-.209-3.475a7.2,7.2,0,0,0,4.636-7.233A7.628,7.628,0,0,0,149.365.109l-11.023,0h0a7.564,7.564,0,0,0-4.321,1.353A8.111,8.111,0,0,0,129.513.105h0a7.8,7.8,0,0,0-5.182,1.916A8.743,8.743,0,0,0,118.856.1h0A8.959,8.959,0,0,0,116.4.441a3.787,3.787,0,0,0-.6.193c-.368.145-.415.168-.415.168a8.569,8.569,0,0,0-2.788,1.912A8.425,8.425,0,0,0,111.007,5,9.237,9.237,0,0,0,103.786.053a12.023,12.023,0,0,0-1.333-.042,7.961,7.961,0,0,0-1.167.071,9.373,9.373,0,0,0-4.968,2.31c-.064-.067-.128-.133-.194-.2A7.484,7.484,0,0,0,90.891.1l-10.94,0h0a7.615,7.615,0,0,0-4.518,1.458A8.074,8.074,0,0,0,71.108.287h0a8.1,8.1,0,0,0-5.56,2.169A7.891,7.891,0,0,0,60.053.284h0a8.134,8.134,0,0,0-5.252,1.9A8.651,8.651,0,0,0,52.688.813s-.674-.3-1-.4a9.354,9.354,0,0,0-1.83-.368Q49.421,0,48.981,0h0a9.194,9.194,0,0,0-5.84,2.15A8.69,8.69,0,0,0,37.4,0h0a8.9,8.9,0,0,0-1.66.156s-.069.01-.731.177a4.98,4.98,0,0,0-.946.314,9.069,9.069,0,0,0-5.736,7.705l-.494,7.75a8.711,8.711,0,0,0-3.25-.622h-.011a8.84,8.84,0,0,0-6.56,2.93,9.084,9.084,0,0,0-6.759-2.947h-.012a10.058,10.058,0,0,0-9.98,9.028L.035,37.776a8.351,8.351,0,0,0,2.108,6.378,8.464,8.464,0,0,0,6.239,2.726H8.4a8.983,8.983,0,0,0,6.88-3.239,8.909,8.909,0,0,0,7,3.274h.025a9.618,9.618,0,0,0,5.8-1.952,7.251,7.251,0,0,0,4.393,1.5l9.537.025h.019a7.38,7.38,0,0,0,4.045-1.2,7.8,7.8,0,0,0,4.17,1.224H50.3a7.894,7.894,0,0,0,6.161-2.929,14.608,14.608,0,0,0,9.016,2.972h.034a14.154,14.154,0,0,0,2.966-.32,6.968,6.968,0,0,0,2.1.333h.022a7.328,7.328,0,0,0,4.022-1.149A7.782,7.782,0,0,0,78.73,46.6h.02A7.825,7.825,0,0,0,83.969,44.6a7.78,7.78,0,0,0,5.246,2.022h.021a7.808,7.808,0,0,0,4.338-1.3,7.8,7.8,0,0,0,4.364,1.323l6.419.017h.049c4.63,0,7.3-1.722,8.723-3.169.1-.1.194-.2.287-.306a14.564,14.564,0,0,0,9.563,3.527h.041a14.045,14.045,0,0,0,8.816-2.987,7.96,7.96,0,0,0,6.246,3.03h.02a7.8,7.8,0,0,0,4.885-1.715,7.9,7.9,0,0,0,4.9,1.741h.02a7.319,7.319,0,0,0,5.22-2.164l.013.007.115.057a26.807,26.807,0,0,0,11.36,2.618h.061c4.875,0,8.808-1.476,11.377-4.269a11.15,11.15,0,0,0,2.823-8.633M77.507,20.588l-.052.01c.012-.024.025-.048.037-.072,0,.021.011.041.015.062" transform="translate(0 -0.001)" fill="#353557"/>
          <path id="Path_6199" data-name="Path 6199" d="M168.015,30.013a7.21,7.21,0,0,0-.489.7.616.616,0,0,0-.155.254l-2.493-4.3A3.407,3.407,0,0,0,161.918,25a3.887,3.887,0,0,0-3.863,3.463L157.4,38.718a2.432,2.432,0,0,0,2.515,2.558,2.777,2.777,0,0,0,2.829-2.581l.322-5.524,2.539,3.669a1.667,1.667,0,0,0,1.352.715,1.794,1.794,0,0,0,1.46-.741l1.834-2.56,1.124-1.53-.3,5.951a2.485,2.485,0,0,0,2.609,2.617,2.8,2.8,0,0,0,2.827-2.612l.451-10.209A3.359,3.359,0,0,0,173.5,25a3.935,3.935,0,0,0-3.172,1.674Z" transform="translate(-124.519 -19.779)" fill="#ffe680"/>
          <path id="Path_6200" data-name="Path 6200" d="M289.332,35.15l.136-6.157a2.627,2.627,0,0,0-2.7-2.632,2.769,2.769,0,0,0-2.831,2.63l-.175,6.3c-.059,2.137-1.194,2.993-2.9,2.991-1.623,0-2.76-.917-2.687-3.081l.208-6.21a2.572,2.572,0,0,0-2.667-2.63,2.824,2.824,0,0,0-2.857,2.628l-.245,6.265c-.212,5.4,3.046,7.618,8.08,7.625s8.52-2.151,8.643-7.726" transform="translate(-215.66 -20.852)" fill="#ffe680"/>
          <path id="Path_6201" data-name="Path 6201" d="M376.584,39.036a2.648,2.648,0,0,0,2.721,2.652,2.7,2.7,0,0,0,2.769-2.646l.057-9.246h2.777a2.176,2.176,0,1,0,.014-4.349l-10.939,0a2.257,2.257,0,0,0-2.319,2.181,2.175,2.175,0,0,0,2.255,2.165h2.774Z" transform="translate(-294.031 -20.13)" fill="#ffe680"/>
          <path id="Path_6202" data-name="Path 6202" d="M468.173,37.718l-4.731-10.4a4.13,4.13,0,0,0-3.828-2.383,3.932,3.932,0,0,0-3.737,2.381L451.42,37.644a2.251,2.251,0,0,0-.2.947,2.737,2.737,0,0,0,2.711,2.712c1.149,0,2.091-.662,2.678-2.275l6.309.006.24.634a2.782,2.782,0,0,0,2.587,1.648,2.731,2.731,0,0,0,2.674-2.708,2.443,2.443,0,0,0-.249-.891M457.92,35.389l1.741-4.575,1.887,4.578Z" transform="translate(-356.974 -19.727)" fill="#ffe680"/>
          <path id="Path_6203" data-name="Path 6203" d="M558.793,26.751a3.586,3.586,0,0,0-2.733-1.262,3.3,3.3,0,0,0-3.422,3.341l.276,10.308a2.778,2.778,0,0,0,2.834,2.629,2.573,2.573,0,0,0,2.651-2.623l-.173-5.354,5.917,6.744a3.372,3.372,0,0,0,2.671,1.247,3.11,3.11,0,0,0,3.174-3.229l-.464-10.5a2.71,2.71,0,0,0-2.808-2.556,2.462,2.462,0,0,0-2.566,2.554l.193,4.98Z" transform="translate(-437.205 -20.165)" fill="#ffe680"/>
          <path id="Path_6204" data-name="Path 6204" d="M657.529,39.154a2.886,2.886,0,0,0,2.918,2.662,2.509,2.509,0,0,0,2.614-2.657l-.559-9.282h2.8a2.043,2.043,0,0,0,2.143-2.173,2.386,2.386,0,0,0-2.418-2.193L654,25.51a2.1,2.1,0,0,0-2.192,2.19,2.37,2.37,0,0,0,2.417,2.173h2.8Z" transform="translate(-515.66 -20.182)" fill="#ffe680"/>
        </g>
      </g>
      <g id="Group_4428" data-name="Group 4428" transform="translate(30.555 25.595)">
        <g id="Group_4427" data-name="Group 4427" clip-path="url(#clip-path-2)">
          <rect id="Rectangle_1766" data-name="Rectangle 1766" width="14.296" height="15.676" transform="translate(-0.068 0)" fill="url(#linear-gradient)"/>
        </g>
      </g>
      <g id="Group_4430" data-name="Group 4430" transform="translate(47.824 25.626)">
        <g id="Group_4429" data-name="Group 4429" clip-path="url(#clip-path-3)">
          <rect id="Rectangle_1767" data-name="Rectangle 1767" width="5.727" height="15.67" transform="translate(-0.065 0)" fill="url(#linear-gradient-2)"/>
        </g>
      </g>
      <g id="Group_4432" data-name="Group 4432" transform="translate(56.759 25.033)">
        <g id="Group_4431" data-name="Group 4431" clip-path="url(#clip-path-4)">
          <rect id="Rectangle_1768" data-name="Rectangle 1768" width="16.15" height="16.32" transform="translate(-0.175 0)" fill="url(#linear-gradient-3)"/>
        </g>
      </g>
      <g id="Group_4434" data-name="Group 4434" transform="translate(76.194 25.677)">
        <g id="Group_4433" data-name="Group 4433" clip-path="url(#clip-path-5)">
          <rect id="Rectangle_1769" data-name="Rectangle 1769" width="15.672" height="15.727" transform="translate(-0.024 0)" fill="url(#linear-gradient-4)"/>
        </g>
      </g>
      <g id="Group_4436" data-name="Group 4436" transform="translate(153.583 20.168)">
        <g id="Group_4435" data-name="Group 4435" clip-path="url(#clip-path-6)">
          <rect id="Rectangle_1770" data-name="Rectangle 1770" width="20.728" height="21.928" transform="translate(-0.252 0)" fill="url(#linear-gradient-5)"/>
        </g>
      </g>
      <g id="Group_4438" data-name="Group 4438" transform="translate(5.221 20.685)">
        <g id="Group_4437" data-name="Group 4437" clip-path="url(#clip-path-7)">
          <rect id="Rectangle_1771" data-name="Rectangle 1771" width="22.781" height="21.014" transform="translate(-0.16 0)" fill="url(#linear-gradient-6)"/>
        </g>
      </g>
      <g id="Group_4440" data-name="Group 4440" transform="translate(95.39 25.711)">
        <g id="Group_4439" data-name="Group 4439" clip-path="url(#clip-path-8)">
          <rect id="Rectangle_1772" data-name="Rectangle 1772" width="15.133" height="15.743" transform="translate(-0.005 0)" fill="url(#linear-gradient-7)"/>
        </g>
      </g>
      <g id="Group_4442" data-name="Group 4442" transform="translate(113.979 25.131)">
        <g id="Group_4441" data-name="Group 4441" clip-path="url(#clip-path-9)">
          <rect id="Rectangle_1773" data-name="Rectangle 1773" width="17.827" height="16.377" transform="translate(-0.103 0)" fill="url(#linear-gradient-8)"/>
        </g>
      </g>
      <g id="Group_4444" data-name="Group 4444" transform="translate(134.881 25.781)">
        <g id="Group_4443" data-name="Group 4443" clip-path="url(#clip-path-10)">
          <rect id="Rectangle_1774" data-name="Rectangle 1774" width="15.401" height="15.786" transform="translate(-0.061 0)" fill="url(#linear-gradient-9)"/>
        </g>
      </g>
      <text id="Collect_Envolve_Breed_Batle_Trade." data-name="Collect, Envolve, Breed, Batle &amp; Trade." transform="translate(3.96 59.581)" fill="#353557" font-size="7" font-family="Poppins-Medium, Poppins" font-weight="500"><tspan x="0" y="0" letter-spacing="0.15em">Collect, Envolve, Breed, B</tspan><tspan y="0" letter-spacing="0.149em">a</tspan><tspan y="0" letter-spacing="0.15em">tle</tspan><tspan y="0" letter-spacing="0.149em"> </tspan><tspan y="0" letter-spacing="0.15em">&amp;</tspan><tspan y="0" letter-spacing="0.149em"> </tspan><tspan y="0" letter-spacing="0.15em">Tr</tspan><tspan y="0" letter-spacing="0.149em">ad</tspan><tspan y="0" letter-spacing="0.15em">e</tspan><tspan y="0">.</tspan></text>
      <path id="Path_7341" data-name="Path 7341" d="M.843.117A.517.517,0,0,0,0,.534c.025.638.057,1.276.09,1.914.1,1.864.223,3.727.418,5.585,0,.022.006.046.007.05s.012.009.017,0A.266.266,0,0,0,.54,8.04c.211-2.029.343-4.065.444-6.1a.167.167,0,0,1,.273-.121q.694.57,1.393,1.134c1.637,1.323,3.3,2.615,4.967,3.9.843.638,1.685,1.279,2.535,1.908a.694.694,0,0,0,1.1-.562c-.021-1.915-.072-3.83-.144-5.743-.029-.638-.051-1.276-.086-1.914a.456.456,0,0,0-.746-.369C9.17,1.1,7.375,2.486,6.192,3.522l.03-.027-.1.076a.383.383,0,0,1-.424.018l-.179-.109ZM9.9,6.277q0,.089,0,.178a.168.168,0,0,1-.27.13L8.485,5.709,6.644,4.32l-.1-.1a.177.177,0,0,1,.014-.271l.121-.091-.028.018c.945-.632,2.174-1.568,3.128-2.241a.167.167,0,0,1,.263.144q-.1,2.247-.142,4.5" transform="translate(117.188 28.882)" fill="#353557" stroke="#353557" stroke-width="1"/>
    </g>
  </g>
</svg>
