<svg xmlns="http://www.w3.org/2000/svg" xmlns:xlink="http://www.w3.org/1999/xlink" width="1366" height="968" viewBox="0 0 1366 968">
  <defs>
    <clipPath id="clip-path">
      <rect id="Rectangle_1824" data-name="Rectangle 1824" width="1366" height="968" fill="#a4a4f4"/>
    </clipPath>
    <radialGradient id="radial-gradient" cx="0.5" cy="0.5" r="0.5" gradientUnits="objectBoundingBox">
      <stop offset="0" stop-color="#fff"/>
      <stop offset="0.744" stop-color="#fff" stop-opacity="0.043"/>
      <stop offset="1" stop-color="#fff" stop-opacity="0"/>
    </radialGradient>
    <clipPath id="clip-path-2">
      <rect id="Rectangle_647" data-name="Rectangle 647" width="1289.852" height="979.879" transform="translate(0 0)" fill="none"/>
    </clipPath>
  </defs>
  <g id="Mask_Group_6" data-name="Mask Group 6" opacity="0.4" clip-path="url(#clip-path)">
    <g id="Group_4757" data-name="Group 4757">
      <circle id="Ellipse_137" data-name="Ellipse 137" cx="512.5" cy="512.5" r="512.5" transform="translate(498 -193)" opacity="0.845" fill="url(#radial-gradient)"/>
      <g id="Group_1502" data-name="Group 1502" transform="translate(746.399 -407.88) rotate(36)" opacity="0.038">
        <g id="Group_1501" data-name="Group 1501" transform="translate(0 0.004)" clip-path="url(#clip-path-2)">
          <path id="Path_1710" data-name="Path 1710" d="M1280.53,32.751c-5.86-4.6-13.693-5.588-21.109-6.276a614.353,614.353,0,0,0-86.707-1.891c-12.226.6-25.567,2.056-34.206,10.729-6.1,6.121-8.727,14.787-11.144,23.082l-26.985,92.634c-11.754,40.352-28.206,86-67.55,100.784-47.915,18-100.575-24.625-115.3-73.648-6.459-21.508-8.113-44.411-16.521-65.235a108.22,108.22,0,0,0-57.4-58.407C837.674,52,831.12,50,824.834,51.456c-16.386,3.8-18.881,25.394-22.064,41.91-6.576,34.124-32.113,63.95-64.817,75.7C642.616,203.336,591.145,90.06,530.906,40.25,509.668,22.688,486.09,6.222,458.924,1.585s-58.59,5.672-70.979,30.288c-17.388,34.552,8.672,74.269,33.332,104.069l91.143,110.141c11.265,13.613,23.264,30.674,17.7,47.444-5.419,16.326-25.907,23.309-42.766,19.894s-31.035-14.332-45.127-24.2C329.493,210.314,181.064,184.882,48.147,219.512c-11.366,2.961-23.018,6.562-31.806,14.356C4.049,244.769-.564,262.39.7,278.771c1.8,23.345,12.5,47.838,26.824,66.272,25.006,32.186,63.274,54.355,102.4,64.444,66.773,17.216,137.4,9,205.7,18.533,20.343,2.838,41.936,8.076,55.53,23.474,21.5,24.355,13.355,63.673-5.832,89.89s-47.056,44.8-68.029,69.613-34.492,61.279-18.538,89.58c11.338,20.112,36.025,30.845,58.962,28.212s43.536-17.285,56.218-36.577c10.54-16.034,16.005-34.851,25.254-51.662s24.205-32.527,43.3-34.361c21.5-2.065,41.109,14.59,50.278,34.151s10.462,41.718,13.173,63.151a447.077,447.077,0,0,0,37.26,130.4c13.346,29.034,30.079,56.954,53,79.219,68.562,66.6,175.149,69.567,270.654,65.713,23.6-.952,47.514-2.127,70-9.338,49.1-15.746,86.968-61.956,92.751-113.2s-20.827-104.729-65.186-131.024c-28.821-17.084-62.878-22.847-93.463-36.524s-59.935-40.118-60.009-73.622a49.623,49.623,0,0,1,7.369-26.644c9.611-15.125,27.8-23,45.63-24.8,28.379-2.876,56.28,7.33,82.911,17.547s54.3,20.794,82.75,18.7,57.857-20.932,62.12-49.136c5.153-34.093-28.777-63.536-62.911-68.413-12.252-1.75-26.121-1.926-34.687-10.86-12.552-13.092-4.945-34.716,4.429-50.242,37.721-62.476,93.26-111.741,143.05-165.1s95.926-114.976,107.228-187.077c2.021-12.895,1.953-28.271-8.316-36.328M190.453,351.315c-15.6,5.56-33.262,2.7-48.194-4.464s-27.566-18.3-39.521-29.766c-14.848-14.246-36.162-40.831-9.069-54.055,20.384-9.95,64.227.581,84.279,7.79,19.664,7.069,39.449,22.293,40.159,43.176.563,16.554-12.051,31.759-27.654,37.319M1197.228,77.957a81.027,81.027,0,0,0-5.921,12.248c-4.949,13.706-8.661,28.19-17.167,40.021q-.128.177-.257.354c-14.1,19.22-44.007,1.231-33.5-20.167a65.877,65.877,0,0,1,6.73-10.865c10.16-13.326,24.3-22.952,38.184-32.338l.213-.144c7.194-4.852,15.994,3.34,11.717,10.89" transform="translate(-0.265 -0.268)" fill="#fff"/>
          <path id="Path_1711" data-name="Path 1711" d="M1280.53,32.751c-5.86-4.6-13.693-5.588-21.109-6.276a614.353,614.353,0,0,0-86.707-1.891c-12.226.6-25.567,2.056-34.206,10.729-6.1,6.121-8.727,14.787-11.144,23.082l-26.985,92.634c-11.754,40.352-28.206,86-67.55,100.784-47.915,18-100.575-24.625-115.3-73.648-6.459-21.508-8.113-44.411-16.521-65.235a108.22,108.22,0,0,0-57.4-58.407C837.674,52,831.12,50,824.834,51.456c-16.386,3.8-18.881,25.394-22.064,41.91-6.576,34.124-32.113,63.95-64.817,75.7C642.616,203.336,591.145,90.06,530.906,40.25,509.668,22.688,486.09,6.222,458.924,1.585s-58.59,5.672-70.979,30.288c-17.388,34.552,8.672,74.269,33.332,104.069l91.143,110.141c11.265,13.613,23.264,30.674,17.7,47.444-5.419,16.326-25.907,23.309-42.766,19.894s-31.035-14.332-45.127-24.2C329.493,210.314,181.064,184.882,48.147,219.512c-11.366,2.961-23.018,6.562-31.806,14.356C4.049,244.769-.564,262.39.7,278.771c1.8,23.345,12.5,47.838,26.824,66.272,25.006,32.186,63.274,54.355,102.4,64.444,66.773,17.216,137.4,9,205.7,18.533,20.343,2.838,41.936,8.076,55.53,23.474,21.5,24.355,13.355,63.673-5.832,89.89s-47.056,44.8-68.029,69.613-34.492,61.279-18.538,89.58c11.338,20.112,36.025,30.845,58.962,28.212s43.536-17.285,56.218-36.577c10.54-16.034,16.005-34.851,25.254-51.662s24.205-32.527,43.3-34.361c21.5-2.065,41.109,14.59,50.278,34.151s10.462,41.718,13.173,63.151a447.077,447.077,0,0,0,37.26,130.4c13.346,29.034,30.079,56.954,53,79.219,68.562,66.6,175.149,69.567,270.654,65.713,23.6-.952,47.514-2.127,70-9.338,49.1-15.746,86.968-61.956,92.751-113.2s-20.827-104.729-65.186-131.024c-28.821-17.084-62.878-22.847-93.463-36.524s-59.935-40.118-60.009-73.622a49.623,49.623,0,0,1,7.369-26.644c9.611-15.125,27.8-23,45.63-24.8,28.379-2.876,56.28,7.33,82.911,17.547s54.3,20.794,82.75,18.7,57.857-20.932,62.12-49.136c5.153-34.093-28.777-63.536-62.911-68.413-12.252-1.75-26.121-1.926-34.687-10.86-12.552-13.092-4.945-34.716,4.429-50.242,37.721-62.476,93.26-111.741,143.05-165.1s95.926-114.976,107.228-187.077C1290.866,56.184,1290.8,40.808,1280.53,32.751ZM190.453,351.315c-15.6,5.56-33.262,2.7-48.194-4.464s-27.566-18.3-39.521-29.766c-14.848-14.246-36.162-40.831-9.069-54.055,20.384-9.95,64.227.581,84.279,7.79,19.664,7.069,39.449,22.293,40.159,43.176C218.669,330.55,206.055,345.755,190.453,351.315Zm688.3,452.865c14.395-29.188,38.525-51.206,70.829-36.7,11.8,5.3,22.071,15.651,23.992,28.447,1.471,9.8-1.984,19.586-5.384,28.889-4.894,13.39-10.844,28.006-23.609,34.354-9.014,4.482-19.655,3.835-29.634,2.51-11.838-1.573-24.381-4.384-32.595-13.053C871.467,837.134,871.753,818.375,878.754,804.18ZM1197.228,77.957a81.027,81.027,0,0,0-5.921,12.248c-4.949,13.706-8.661,28.19-17.167,40.021q-.128.177-.257.354c-14.1,19.22-44.007,1.231-33.5-20.167a65.877,65.877,0,0,1,6.73-10.865c10.16-13.326,24.3-22.952,38.184-32.338l.213-.144C1192.7,62.216,1201.5,70.407,1197.228,77.957Z" transform="translate(-0.265 -0.268)" fill="none"/>
        </g>
      </g>
      <g id="Group_4659" data-name="Group 4659">
        <path id="Path_1685" data-name="Path 1685" d="M694.426,905.963A2.963,2.963,0,1,1,691.463,903a2.963,2.963,0,0,1,2.963,2.963" transform="translate(-634.731 -629.963)" fill="#fff"/>
        <path id="Path_1686" data-name="Path 1686" d="M681.426,556.963A2.963,2.963,0,1,1,678.463,554a2.963,2.963,0,0,1,2.963,2.963" transform="translate(-645.431 -17.926)" fill="#fff"/>
        <path id="Path_1689" data-name="Path 1689" d="M600.426,1350.963a2.963,2.963,0,1,1-2.963-2.963,2.963,2.963,0,0,1,2.963,2.963" transform="translate(-288.168 -615.144)" fill="#fff"/>
        <path id="Path_1695" data-name="Path 1695" d="M518.426,114.963A2.963,2.963,0,1,1,515.463,112a2.963,2.963,0,0,1,2.963,2.963" transform="translate(-248.421 -16.026)" fill="#fff"/>
        <path id="Path_1700" data-name="Path 1700" d="M443.813,492.56l-1.246-4.822a.633.633,0,0,0-.454-.455l-4.822-1.246a.633.633,0,0,1,0-1.226l4.822-1.246a.633.633,0,0,0,.454-.455l1.246-4.822a.633.633,0,0,1,1.226,0l1.246,4.822a.634.634,0,0,0,.455.455l4.822,1.246a.633.633,0,0,1,0,1.226l-4.822,1.246a.634.634,0,0,0-.455.455l-1.246,4.822a.633.633,0,0,1-1.226,0" transform="translate(-284.056 -318.371)" fill="#fff" fill-rule="evenodd"/>
        <path id="Path_1701" data-name="Path 1701" d="M670.833,139.969l-1.63-6.308a.829.829,0,0,0-.595-.595l-6.307-1.63a.828.828,0,0,1,0-1.6l6.307-1.63a.828.828,0,0,0,.595-.595l1.63-6.308a.828.828,0,0,1,1.6,0l1.63,6.308a.828.828,0,0,0,.595.595l6.307,1.63a.828.828,0,0,1,0,1.6l-6.307,1.63a.829.829,0,0,0-.595.595l-1.63,6.308a.828.828,0,0,1-1.6,0" transform="translate(-226.591 -18.78)" fill="#fff" fill-rule="evenodd"/>
        <path id="Path_1687" data-name="Path 1687" d="M1341.426,861.963a2.963,2.963,0,1,1-2.963-2.963,2.963,2.963,0,0,1,2.963,2.963" transform="translate(-647.348 -378.114)" fill="#fff"/>
        <path id="Path_1698" data-name="Path 1698" d="M1025.426,515.963a2.963,2.963,0,1,1-2.963-2.963,2.963,2.963,0,0,1,2.963,2.963" transform="translate(-450.175 -355.237)" fill="#fff"/>
        <path id="Path_1712" data-name="Path 1712" d="M670.833,139.969l-1.63-6.308a.829.829,0,0,0-.595-.595l-6.307-1.63a.828.828,0,0,1,0-1.6l6.307-1.63a.828.828,0,0,0,.595-.595l1.63-6.308a.828.828,0,0,1,1.6,0l1.63,6.308a.828.828,0,0,0,.595.595l6.307,1.63a.828.828,0,0,1,0,1.6l-6.307,1.63a.829.829,0,0,0-.595.595l-1.63,6.308a.828.828,0,0,1-1.6,0" transform="translate(-62.59 439.365)" fill="#fff" fill-rule="evenodd"/>
        <path id="Path_1713" data-name="Path 1713" d="M667.128,132.161l-.97-3.755a.493.493,0,0,0-.354-.354l-3.754-.97a.493.493,0,0,1,0-.954l3.754-.97a.492.492,0,0,0,.354-.354l.97-3.755a.493.493,0,0,1,.954,0l.97,3.755a.493.493,0,0,0,.354.354l3.754.97a.493.493,0,0,1,0,.954l-3.754.97a.494.494,0,0,0-.354.354l-.97,3.755a.493.493,0,0,1-.954,0" transform="translate(-155.53 576.973)" fill="#fff" fill-rule="evenodd"/>
        <path id="Path_1715" data-name="Path 1715" d="M443.813,492.56l-1.246-4.822a.633.633,0,0,0-.454-.455l-4.822-1.246a.633.633,0,0,1,0-1.226l4.822-1.246a.633.633,0,0,0,.454-.455l1.246-4.822a.633.633,0,0,1,1.226,0l1.246,4.822a.634.634,0,0,0,.455.455l4.822,1.246a.633.633,0,0,1,0,1.226l-4.822,1.246a.634.634,0,0,0-.455.455l-1.246,4.822a.633.633,0,0,1-1.226,0" transform="translate(-213.057 151.966)" fill="#fff" fill-rule="evenodd"/>
        <path id="Path_1717" data-name="Path 1717" d="M443.813,492.56l-1.246-4.822a.633.633,0,0,0-.454-.455l-4.822-1.246a.633.633,0,0,1,0-1.226l4.822-1.246a.633.633,0,0,0,.454-.455l1.246-4.822a.633.633,0,0,1,1.226,0l1.246,4.822a.634.634,0,0,0,.455.455l4.822,1.246a.633.633,0,0,1,0,1.226l-4.822,1.246a.634.634,0,0,0-.455.455l-1.246,4.822a.633.633,0,0,1-1.226,0" transform="translate(343.763 -71.425)" fill="#fff" fill-rule="evenodd"/>
        <path id="Path_1719" data-name="Path 1719" d="M670.833,139.969l-1.63-6.308a.829.829,0,0,0-.595-.595l-6.307-1.63a.828.828,0,0,1,0-1.6l6.307-1.63a.828.828,0,0,0,.595-.595l1.63-6.308a.828.828,0,0,1,1.6,0l1.63,6.308a.828.828,0,0,0,.595.595l6.307,1.63a.828.828,0,0,1,0,1.6l-6.307,1.63a.829.829,0,0,0-.595.595l-1.63,6.308a.828.828,0,0,1-1.6,0" transform="translate(79.365 1.13)" fill="#fff" fill-rule="evenodd"/>
        <path id="Path_1808" data-name="Path 1808" d="M670.833,139.969l-1.63-6.308a.829.829,0,0,0-.595-.595l-6.307-1.63a.828.828,0,0,1,0-1.6l6.307-1.63a.828.828,0,0,0,.595-.595l1.63-6.308a.828.828,0,0,1,1.6,0l1.63,6.308a.828.828,0,0,0,.595.595l6.307,1.63a.828.828,0,0,1,0,1.6l-6.307,1.63a.829.829,0,0,0-.595.595l-1.63,6.308a.828.828,0,0,1-1.6,0" transform="translate(-561.635 568.913)" fill="#fff" fill-rule="evenodd"/>
        <path id="Path_6526" data-name="Path 6526" d="M2577.426,1168.963a2.963,2.963,0,1,1-2.963-2.963,2.963,2.963,0,0,1,2.963,2.963" transform="translate(-1246.464 -526.924)" fill="#fff"/>
        <path id="Path_6527" data-name="Path 6527" d="M2501.426,446.963a2.963,2.963,0,1,1-2.963-2.963,2.963,2.963,0,0,1,2.963,2.963" transform="translate(-1209.625 -176.954)" fill="#fff"/>
        <path id="Path_6528" data-name="Path 6528" d="M2061.426,296.963a2.963,2.963,0,1,1-2.963-2.963,2.963,2.963,0,0,1,2.963,2.963" transform="translate(-996.348 -104.246)" fill="#fff"/>
        <path id="Path_6529" data-name="Path 6529" d="M2245.738,308.2l-2.326-9a1.181,1.181,0,0,0-.847-.848l-9-2.325a1.181,1.181,0,0,1,0-2.287l9-2.326a1.178,1.178,0,0,0,.847-.848l2.326-9a1.181,1.181,0,0,1,2.286,0l2.326,9a1.18,1.18,0,0,0,.848.848l9,2.326a1.181,1.181,0,0,1,0,2.287l-9,2.325a1.183,1.183,0,0,0-.848.848l-2.326,9a1.181,1.181,0,0,1-2.286,0" transform="translate(-1114.477 3.192)" fill="#fff" fill-rule="evenodd"/>
        <path id="Path_6530" data-name="Path 6530" d="M2496.833,1321.969l-1.631-6.308a.828.828,0,0,0-.594-.594l-6.308-1.63a.828.828,0,0,1,0-1.6l6.308-1.63a.828.828,0,0,0,.594-.595l1.631-6.308a.828.828,0,0,1,1.6,0l1.63,6.308a.829.829,0,0,0,.595.595l6.308,1.63a.828.828,0,0,1,0,1.6l-6.308,1.63a.828.828,0,0,0-.595.594l-1.63,6.308a.828.828,0,0,1-1.6,0" transform="translate(-1205.835 -593.176)" fill="#fff" fill-rule="evenodd"/>
        <path id="Path_6531" data-name="Path 6531" d="M1333.745,658.123a2.123,2.123,0,1,1-2.123-2.123,2.122,2.122,0,0,1,2.123,2.123" transform="translate(-369.182 -544.145)" fill="#fff"/>
        <path id="Path_6532" data-name="Path 6532" d="M443.813,492.56l-1.246-4.822a.633.633,0,0,0-.454-.455l-4.822-1.246a.633.633,0,0,1,0-1.226l4.822-1.246a.633.633,0,0,0,.454-.455l1.246-4.822a.633.633,0,0,1,1.226,0l1.246,4.822a.634.634,0,0,0,.455.455l4.822,1.246a.633.633,0,0,1,0,1.226l-4.822,1.246a.634.634,0,0,0-.455.455l-1.246,4.822a.633.633,0,0,1-1.226,0" transform="translate(845.029 -289.745)" fill="#fff" fill-rule="evenodd"/>
        <path id="Path_6533" data-name="Path 6533" d="M679.745,1159.123a2.123,2.123,0,1,1-2.123-2.123,2.122,2.122,0,0,1,2.123,2.123" transform="translate(-48.618 -997.556)" fill="#fff"/>
        <path id="Path_6534" data-name="Path 6534" d="M665.583,128.906l-.7-2.69a.354.354,0,0,0-.254-.254l-2.69-.7a.353.353,0,0,1,0-.684l2.69-.7a.353.353,0,0,0,.254-.254l.7-2.69a.353.353,0,0,1,.684,0l.7,2.69a.353.353,0,0,0,.254.254l2.69.7a.353.353,0,0,1,0,.684l-2.69.7a.354.354,0,0,0-.254.254l-.7,2.69a.353.353,0,0,1-.684,0" transform="translate(-36.92 -14.625)" fill="#fff" fill-rule="evenodd"/>
        <path id="Path_6535" data-name="Path 6535" d="M323.426,440.963A2.963,2.963,0,1,1,320.463,438a2.963,2.963,0,0,1,2.963,2.963" transform="translate(188.649 -39.926)" fill="#fff"/>
        <path id="Path_6536" data-name="Path 6536" d="M692.745,905.123A2.123,2.123,0,1,1,690.622,903a2.123,2.123,0,0,1,2.123,2.123" transform="translate(7.063 -692.325)" fill="#fff"/>
        <path id="Path_6537" data-name="Path 6537" d="M2020.426,83.963A2.963,2.963,0,1,1,2017.463,81a2.963,2.963,0,0,1,2.963,2.963" transform="translate(-976.474 -1)" fill="#fff"/>
        <path id="Path_6538" data-name="Path 6538" d="M1684.426,89.963A2.963,2.963,0,1,1,1681.463,87a2.963,2.963,0,0,1,2.963,2.963" transform="translate(-813.607 -3.908)" fill="#fff"/>
        <path id="Path_6539" data-name="Path 6539" d="M2449.426,102.963a2.963,2.963,0,1,1-2.963-2.963,2.963,2.963,0,0,1,2.963,2.963" transform="translate(-1144.42 -0.21)" fill="#fff"/>
        <path id="Path_6540" data-name="Path 6540" d="M1339.745,861.123a2.123,2.123,0,1,1-2.123-2.123,2.122,2.122,0,0,1,2.123,2.123" transform="translate(-301.719 -550.973)" fill="#fff"/>
        <path id="Path_6541" data-name="Path 6541" d="M667.128,132.161l-.97-3.755a.493.493,0,0,0-.354-.354l-3.754-.97a.493.493,0,0,1,0-.954l3.754-.97a.492.492,0,0,0,.354-.354l.97-3.755a.493.493,0,0,1,.954,0l.97,3.755a.493.493,0,0,0,.354.354l3.754.97a.493.493,0,0,1,0,.954l-3.754.97a.494.494,0,0,0-.354.354l-.97,3.755a.493.493,0,0,1-.954,0" transform="translate(544.003 360.206)" fill="#fff" fill-rule="evenodd"/>
      </g>
    </g>
  </g>
</svg>
