<svg xmlns="http://www.w3.org/2000/svg" xmlns:xlink="http://www.w3.org/1999/xlink" width="60.796" height="60.796" viewBox="0 0 60.796 60.796">
  <defs>
    <clipPath id="clip-path">
      <rect id="Rectangle_2450" data-name="Rectangle 2450" width="56.923" height="56.923" fill="none"/>
    </clipPath>
    <clipPath id="clip-path-2">
      <rect id="Rectangle_2451" data-name="Rectangle 2451" width="41.626" height="41.626" fill="none"/>
    </clipPath>
    <clipPath id="clip-path-3">
      <rect id="Rectangle_2452" data-name="Rectangle 2452" width="28.321" height="8.26" fill="none"/>
    </clipPath>
    <clipPath id="clip-path-4">
      <rect id="Rectangle_2453" data-name="Rectangle 2453" width="4.958" height="6.783" fill="none"/>
    </clipPath>
    <clipPath id="clip-path-5">
      <rect id="Rectangle_2454" data-name="Rectangle 2454" width="14.215" height="29.778" fill="none"/>
    </clipPath>
    <clipPath id="clip-path-6">
      <rect id="Rectangle_2455" data-name="Rectangle 2455" width="23.257" height="24.568" fill="none"/>
    </clipPath>
    <clipPath id="clip-path-7">
      <rect id="Rectangle_2456" data-name="Rectangle 2456" width="32.124" height="32.124" fill="none"/>
    </clipPath>
    <clipPath id="clip-path-8">
      <rect id="Rectangle_2457" data-name="Rectangle 2457" width="4.914" height="5.789" fill="none"/>
    </clipPath>
    <clipPath id="clip-path-9">
      <rect id="Rectangle_2458" data-name="Rectangle 2458" width="4.53" height="4.275" fill="none"/>
    </clipPath>
    <clipPath id="clip-path-10">
      <rect id="Rectangle_2459" data-name="Rectangle 2459" width="6.53" height="5.908" fill="none"/>
    </clipPath>
    <clipPath id="clip-path-11">
      <rect id="Rectangle_2460" data-name="Rectangle 2460" width="4.124" height="3.731" fill="none"/>
    </clipPath>
    <clipPath id="clip-path-12">
      <rect id="Rectangle_2461" data-name="Rectangle 2461" width="47.22" height="40.131" fill="none"/>
    </clipPath>
  </defs>
  <g id="Group_8455" data-name="Group 8455" transform="translate(1.5 1.5)">
    <path id="Path_7496" data-name="Path 7496" d="M421.349,30.4A28.875,28.875,0,1,1,404.009,3.9c1.371.6,4.166,1.578,5.04,2.847.484.7.5,2.115.708,2.952q.413,1.677.929,3.326a6.621,6.621,0,0,1,.472,3.4q.655-2.791,1.144-5.617a3.323,3.323,0,0,1,1.906,1.106c4.916,4.611,7.141,11.833,7.141,18.477" transform="translate(-363.553 -1.501)"/>
    <path id="Path_7497" data-name="Path 7497" d="M421.349,30.4A28.875,28.875,0,1,1,404.009,3.9c1.371.6,4.166,1.578,5.04,2.847.484.7.5,2.115.708,2.952q.413,1.677.929,3.326a6.621,6.621,0,0,1,.472,3.4q.655-2.791,1.144-5.617a3.323,3.323,0,0,1,1.906,1.106C419.124,16.533,421.349,23.755,421.349,30.4Z" transform="translate(-363.553 -1.501)" fill="none" stroke="#000" stroke-linecap="round" stroke-linejoin="round" stroke-width="3"/>
    <g id="Group_6312" data-name="Group 6312" transform="translate(0.287 0.286)" style="mix-blend-mode: normal;isolation: isolate">
      <g id="Group_6311" data-name="Group 6311">
        <g id="Group_6310" data-name="Group 6310" clip-path="url(#clip-path)">
          <path id="Path_7498" data-name="Path 7498" d="M414.919,13.241a1.886,1.886,0,0,0-1.485-.683c-.321,1.855-.569,3.918-1,5.75.256-1.113-.42-3.653-.761-4.743s-.521-1.874-.792-2.975a7.788,7.788,0,0,0-1.045-2.44c-.861-1.249-3.614-2.214-4.964-2.8a28.5,28.5,0,0,0-28.159,3.1L377.348,8l2.272,2.88,6.257.427-3.442.326a2.552,2.552,0,0,0-.908.262l-.6.3a1.611,1.611,0,0,0-.667.627l-.051.087a1.68,1.68,0,0,0-.229.87l.014.96-.73.614V11.328l-2.545-2.882a28.468,28.468,0,0,0,4.2,48.533l.91-.936.511-2.279,1.08-1.395-.186-1.387,2.229.366-.251.755-.81.031-1.611,1.375-.53,1.562.409,2.7a28.474,28.474,0,0,0,39.283-26.33c0-6.544-2.191-13.656-7.033-18.2" transform="translate(-365.03 -2.978)" fill="#c1740e"/>
        </g>
      </g>
    </g>
    <path id="Path_7499" data-name="Path 7499" d="M391.429,206.706c.689,2.376,3.512,5.3,3.512,5.3a6.044,6.044,0,0,1-3.512-5.3" transform="translate(-386.018 -166.884)"/>
    <path id="Path_7500" data-name="Path 7500" d="M636.245,116.168c-.069-5.3-1.377-7.4-1.377-7.4l.632.871a5.4,5.4,0,0,1,1.007,3.664Z" transform="translate(-582.217 -87.95)"/>
    <path id="Path_7501" data-name="Path 7501" d="M445.111,61.549A22.453,22.453,0,1,1,422.658,39.1a22.453,22.453,0,0,1,22.453,22.453" transform="translate(-393.092 -31.8)"/>
    <g id="Group_6315" data-name="Group 6315" transform="translate(8.101 8.283)" style="mix-blend-mode: normal;isolation: isolate">
      <g id="Group_6314" data-name="Group 6314">
        <g id="Group_6313" data-name="Group 6313" clip-path="url(#clip-path-2)">
          <path id="Path_7502" data-name="Path 7502" d="M446.921,65a20.813,20.813,0,1,1-20.813-20.813A20.813,20.813,0,0,1,446.921,65" transform="translate(-405.295 -44.187)" fill="#dba86b"/>
        </g>
      </g>
    </g>
    <g id="Group_6318" data-name="Group 6318" transform="translate(12.55 0.286)" style="mix-blend-mode: normal;isolation: isolate">
      <g id="Group_6317" data-name="Group 6317">
        <g id="Group_6316" data-name="Group 6316" clip-path="url(#clip-path-3)">
          <path id="Path_7503" data-name="Path 7503" d="M456.545,5.656c-.273-.113-.525-.217-.74-.311a28.5,28.5,0,0,0-27.581,2.69h0L428.279,8l1.375,1.743h0l.9,1.137,5.285.361-3.8-.836-.219-1.628s7.417-6.65,24.725-3.119" transform="translate(-428.224 -2.978)" fill="#dba86b"/>
        </g>
      </g>
    </g>
    <path id="Path_7504" data-name="Path 7504" d="M443.6,46.473l-.6.3a1.61,1.61,0,0,0-.666.626l-.051.087a1.679,1.679,0,0,0-.229.87l.013.941a29.68,29.68,0,0,1,5.886-3.417l-3.442.326a2.548,2.548,0,0,0-.908.262" transform="translate(-426.817 -37.272)" fill="#dba86b"/>
    <g id="Group_6321" data-name="Group 6321" transform="translate(47.693 9.841)" style="mix-blend-mode: normal;isolation: isolate">
      <g id="Group_6320" data-name="Group 6320">
        <g id="Group_6319" data-name="Group 6319" clip-path="url(#clip-path-4)">
          <path id="Path_7505" data-name="Path 7505" d="M610.316,52.239l-1,5.75,1.375-3.978A9.481,9.481,0,0,1,614.275,59l-1.864-5.473s-.965-1.523-2.1-1.285" transform="translate(-609.317 -52.213)" fill="#dba86b"/>
        </g>
      </g>
    </g>
    <path id="Path_7506" data-name="Path 7506" d="M438.831,61.253l-.008,1.164-.777.206.156-.788Z" transform="translate(-423.59 -49.658)"/>
    <g id="Group_6324" data-name="Group 6324" transform="translate(0.287 5.754)" style="mix-blend-mode: normal;isolation: isolate">
      <g id="Group_6323" data-name="Group 6323">
        <g id="Group_6322" data-name="Group 6322" clip-path="url(#clip-path-5)">
          <path id="Path_7507" data-name="Path 7507" d="M378.517,38.743c.221-.236.474-.5.728-.745l-.84-3.427-1.69-3.418A28.482,28.482,0,0,0,365.848,60.93a79.939,79.939,0,0,1,2.622-16.2,2.976,2.976,0,0,0,3.44-2.046,12.32,12.32,0,0,1,2.186-4.237l2.621-3.215,1.4.731Z" transform="translate(-365.03 -31.152)" fill="#dba86b"/>
        </g>
      </g>
    </g>
    <g id="Group_6327" data-name="Group 6327" transform="translate(11.898 11.042)" style="mix-blend-mode: normal;isolation: isolate">
      <g id="Group_6326" data-name="Group 6326">
        <g id="Group_6325" data-name="Group 6325" clip-path="url(#clip-path-6)">
          <path id="Path_7508" data-name="Path 7508" d="M443.776,60.11c5.006,3.447,5.8,10.978,1.779,16.819s-11.342,7.783-16.348,4.335-5.8-10.978-1.78-16.819,11.342-7.783,16.348-4.336" transform="translate(-424.863 -58.404)" fill="#e8be91"/>
        </g>
      </g>
    </g>
    <g id="Group_6330" data-name="Group 6330" transform="translate(14.905 15.088)" opacity="0.15">
      <g id="Group_6329" data-name="Group 6329">
        <g id="Group_6328" data-name="Group 6328" clip-path="url(#clip-path-7)">
          <path id="Path_7509" data-name="Path 7509" d="M465.858,79.253a18.116,18.116,0,0,1-25.5,25.5,18.116,18.116,0,1,0,25.5-25.5" transform="translate(-440.362 -79.253)"/>
        </g>
      </g>
    </g>
    <g id="Group_6333" data-name="Group 6333" transform="translate(37.512 19.345)" style="mix-blend-mode: normal;isolation: isolate">
      <g id="Group_6332" data-name="Group 6332">
        <g id="Group_6331" data-name="Group 6331" clip-path="url(#clip-path-8)">
          <path id="Path_7510" data-name="Path 7510" d="M559.315,101.191a2.933,2.933,0,1,1-2.457,2.895,2.7,2.7,0,0,1,2.457-2.895" transform="translate(-556.858 -101.191)" fill="#e8be91"/>
        </g>
      </g>
    </g>
    <g id="Group_6336" data-name="Group 6336" transform="translate(11.384 34.533)" style="mix-blend-mode: normal;isolation: isolate">
      <g id="Group_6335" data-name="Group 6335">
        <g id="Group_6334" data-name="Group 6334" clip-path="url(#clip-path-9)">
          <path id="Path_7511" data-name="Path 7511" d="M426.436,182.937a2.406,2.406,0,1,1-.812-3.006,2.217,2.217,0,0,1,.812,3.006" transform="translate(-422.216 -179.453)" fill="#e8be91"/>
        </g>
      </g>
    </g>
    <g id="Group_6339" data-name="Group 6339" transform="translate(17.903 14.129)" opacity="0.4" style="mix-blend-mode: normal;isolation: isolate">
      <g id="Group_6338" data-name="Group 6338">
        <g id="Group_6337" data-name="Group 6337" clip-path="url(#clip-path-10)">
          <path id="Path_7512" data-name="Path 7512" d="M462.108,75.866a3.383,3.383,0,1,1-4.234-1.2,3.131,3.131,0,0,1,4.234,1.2" transform="translate(-455.807 -74.31)" fill="#fff"/>
        </g>
      </g>
    </g>
    <g id="Group_6342" data-name="Group 6342" transform="translate(15.134 20.831)" opacity="0.4" style="mix-blend-mode: normal;isolation: isolate">
      <g id="Group_6341" data-name="Group 6341">
        <g id="Group_6340" data-name="Group 6340" clip-path="url(#clip-path-11)">
          <path id="Path_7513" data-name="Path 7513" d="M445.519,109.827a2.136,2.136,0,1,1-2.674-.76,1.978,1.978,0,0,1,2.674.76" transform="translate(-441.539 -108.844)" fill="#fff"/>
        </g>
      </g>
    </g>
    <g id="Group_6345" data-name="Group 6345" transform="translate(9.99 17.078)" opacity="0.15">
      <g id="Group_6344" data-name="Group 6344">
        <g id="Group_6343" data-name="Group 6343" clip-path="url(#clip-path-12)">
          <path id="Path_7514" data-name="Path 7514" d="M425.714,267.808l.7-.724a20.287,20.287,0,0,1-5.807-2.512,28.466,28.466,0,0,0,5.1,3.236" transform="translate(-419.527 -230.599)"/>
          <path id="Path_7515" data-name="Path 7515" d="M415.057,259.931l-.027-.023.027.023" transform="translate(-415.03 -226.839)"/>
          <path id="Path_7516" data-name="Path 7516" d="M490.62,102.176c-2.484,2.932-2.741,4.477-2.741,4.477l-4.017,7.328-6.027,6.241-6.8,3.81s-.915,2.661-5.713,3.209a46.489,46.489,0,0,1-11.385-2.758l-.11.323.124.819a17.8,17.8,0,0,0,2.188,1.069s-.862-.153-2.1-.471l.194,1.283a28.539,28.539,0,0,0,36.837-38c.007.033,2.03,9.744-.45,12.671" transform="translate(-446.296 -89.505)"/>
          <path id="Path_7517" data-name="Path 7517" d="M433.053,257.951l.216-.965a15.983,15.983,0,0,1-4.8-2.954,18.477,18.477,0,0,0,4.584,3.918" transform="translate(-425.861 -222.105)"/>
        </g>
      </g>
    </g>
    <path id="Path_7518" data-name="Path 7518" d="M475.507,105.746a10.579,10.579,0,0,1-7.19-2.825c-.117-.117-2.854-2.9-2.062-6.333a14.475,14.475,0,0,0-.242-5.488,1.582,1.582,0,0,1,2.262-1.741,7.011,7.011,0,0,1,2.431,2.062c-.029-.181-.051-.285-.052-.289l-.014-.08c-1.013-7.259,2.01-10.127,3.9-11.191a1.772,1.772,0,0,1,2.586,1.974c-.038.152-.078.309-.12.473-.5,1.959-1.124,4.4.323,6.1a18.433,18.433,0,0,1,1.831,2.486,6.923,6.923,0,0,1,1.9-2.179,1.418,1.418,0,0,1,2.214,1.506,4.149,4.149,0,0,0-.076,1.316,7.653,7.653,0,0,0,.75,2.684,8.906,8.906,0,0,1,.9,4.638c-.172,1.646-1.042,3.952-4.208,5.59a11.081,11.081,0,0,1-5.132,1.3m-7-13.442a13.9,13.9,0,0,1-.06,4.79c-.509,2.2,1.444,4.218,1.464,4.238a8.356,8.356,0,0,0,9.693,1.114c2.106-1.089,4.216-3.234,2.308-7.266a10.139,10.139,0,0,1-.905-2.968,5.82,5.82,0,0,0-.318.766,1.586,1.586,0,0,1-1.482,1.08h-.021a1.562,1.562,0,0,1-1.484-1.04,11.419,11.419,0,0,0-2.087-3.155c-1.933-2.272-1.514-5.112-1-7.261-1.207,1.192-2.379,3.539-1.75,8.1a14.54,14.54,0,0,1,.082,4.88,1.391,1.391,0,0,1-2.722.09,7.569,7.569,0,0,0-1.717-3.372m-1.249-.936h0" transform="translate(-446.1 -64.472)" fill="#fff"/>
    <path id="Path_7519" data-name="Path 7519" d="M475.507,105.746a10.579,10.579,0,0,1-7.19-2.825c-.117-.117-2.854-2.9-2.062-6.333a14.475,14.475,0,0,0-.242-5.488,1.582,1.582,0,0,1,2.262-1.741,7.011,7.011,0,0,1,2.431,2.062c-.029-.181-.051-.285-.052-.289l-.014-.08c-1.013-7.259,2.01-10.127,3.9-11.191a1.772,1.772,0,0,1,2.586,1.974c-.038.152-.078.309-.12.473-.5,1.959-1.124,4.4.323,6.1a18.433,18.433,0,0,1,1.831,2.486,6.923,6.923,0,0,1,1.9-2.179,1.418,1.418,0,0,1,2.214,1.506,4.149,4.149,0,0,0-.076,1.316,7.653,7.653,0,0,0,.75,2.684,8.906,8.906,0,0,1,.9,4.638c-.172,1.646-1.042,3.952-4.208,5.59A11.081,11.081,0,0,1,475.507,105.746Zm-7-13.442a13.9,13.9,0,0,1-.06,4.79c-.509,2.2,1.444,4.218,1.464,4.238a8.356,8.356,0,0,0,9.693,1.114c2.106-1.089,4.216-3.234,2.308-7.266a10.139,10.139,0,0,1-.905-2.968,5.82,5.82,0,0,0-.318.766,1.586,1.586,0,0,1-1.482,1.08h-.021a1.562,1.562,0,0,1-1.484-1.04,11.419,11.419,0,0,0-2.087-3.155c-1.933-2.272-1.514-5.112-1-7.261-1.207,1.192-2.379,3.539-1.75,8.1a14.54,14.54,0,0,1,.082,4.88,1.391,1.391,0,0,1-2.722.09A7.569,7.569,0,0,0,468.508,92.3Zm-1.249-.936h0Z" transform="translate(-446.1 -64.472)" fill="none" stroke="#fff" stroke-width="1"/>
  </g>
</svg>
